<svg width="215" height="55" viewBox="0 0 215 55" fill="none" xmlns="http://www.w3.org/2000/svg">
<path d="M76.512 22V5.2H79.992V12.736L87.336 5.2H91.584L83.472 13.192L91.968 22H87.312L79.992 14.128V22H76.512ZM94.6624 8.008C94.1504 8.008 93.7104 7.824 93.3424 7.456C92.9744 7.088 92.7904 6.648 92.7904 6.136C92.7904 5.624 92.9744 5.184 93.3424 4.816C93.7104 4.448 94.1504 4.264 94.6624 4.264C95.1744 4.264 95.6144 4.448 95.9824 4.816C96.3504 5.184 96.5344 5.624 96.5344 6.136C96.5344 6.648 96.3504 7.088 95.9824 7.456C95.6144 7.824 95.1744 8.008 94.6624 8.008ZM96.3184 9.496V22H93.0304V9.496H96.3184ZM98.8898 22V9.496H102.178V10.48C102.658 10.08 103.186 9.776 103.762 9.568C104.354 9.36 104.994 9.256 105.682 9.256C107.122 9.256 108.306 9.72 109.234 10.648C110.162 11.576 110.626 12.768 110.626 14.224V22H107.338V14.704C107.338 13.92 107.098 13.288 106.618 12.808C106.154 12.328 105.53 12.088 104.746 12.088C104.202 12.088 103.706 12.2 103.258 12.424C102.826 12.632 102.466 12.936 102.178 13.336V22H98.8898ZM124.324 20.44C123.556 21.064 122.764 21.52 121.948 21.808C121.148 22.096 120.252 22.24 119.26 22.24C118.316 22.24 117.428 22.072 116.596 21.736C115.78 21.4 115.068 20.944 114.46 20.368C113.868 19.792 113.396 19.112 113.044 18.328C112.708 17.528 112.54 16.672 112.54 15.76C112.54 14.864 112.7 14.024 113.02 13.24C113.356 12.44 113.812 11.752 114.388 11.176C114.964 10.584 115.644 10.12 116.428 9.784C117.228 9.448 118.076 9.28 118.972 9.28C119.852 9.28 120.668 9.456 121.42 9.808C122.188 10.144 122.844 10.608 123.388 11.2C123.948 11.792 124.38 12.504 124.684 13.336C125.004 14.152 125.164 15.04 125.164 16V16.864H115.852C116.076 17.648 116.508 18.28 117.148 18.76C117.788 19.24 118.54 19.48 119.404 19.48C119.948 19.48 120.46 19.392 120.94 19.216C121.42 19.04 121.828 18.792 122.164 18.472L124.324 20.44ZM118.9 11.992C118.148 11.992 117.5 12.224 116.956 12.688C116.412 13.136 116.036 13.744 115.828 14.512H121.948C121.74 13.776 121.356 13.176 120.796 12.712C120.252 12.232 119.62 11.992 118.9 11.992ZM127.179 22V9.496H130.467V10.864C130.867 10.32 131.347 9.912 131.907 9.64C132.483 9.352 133.115 9.208 133.803 9.208C134.123 9.224 134.387 9.256 134.595 9.304C134.819 9.336 135.011 9.4 135.171 9.496V12.376C134.931 12.264 134.667 12.184 134.379 12.136C134.091 12.072 133.795 12.04 133.491 12.04C132.851 12.04 132.259 12.2 131.715 12.52C131.187 12.84 130.771 13.304 130.467 13.912V22H127.179ZM138.584 8.008C138.072 8.008 137.632 7.824 137.264 7.456C136.896 7.088 136.712 6.648 136.712 6.136C136.712 5.624 136.896 5.184 137.264 4.816C137.632 4.448 138.072 4.264 138.584 4.264C139.096 4.264 139.536 4.448 139.904 4.816C140.272 5.184 140.456 5.624 140.456 6.136C140.456 6.648 140.272 7.088 139.904 7.456C139.536 7.824 139.096 8.008 138.584 8.008ZM136.184 27.16C135.88 27.16 135.568 27.136 135.248 27.088C134.912 27.056 134.648 27.008 134.456 26.944V24.424C134.632 24.456 134.808 24.48 134.984 24.496C135.144 24.512 135.328 24.52 135.536 24.52C136.032 24.52 136.392 24.416 136.616 24.208C136.84 24.016 136.952 23.696 136.952 23.248V9.496H140.24V23.44C140.24 24.624 139.88 25.536 139.16 26.176C138.456 26.832 137.464 27.16 136.184 27.16ZM146.772 22.216C145.428 22.216 144.332 21.864 143.484 21.16C142.636 20.44 142.212 19.512 142.212 18.376C142.212 17.192 142.668 16.264 143.58 15.592C144.492 14.92 145.748 14.584 147.348 14.584C147.86 14.584 148.372 14.624 148.884 14.704C149.396 14.784 149.9 14.904 150.396 15.064V14.176C150.396 13.456 150.172 12.912 149.724 12.544C149.276 12.176 148.62 11.992 147.756 11.992C147.228 11.992 146.652 12.08 146.028 12.256C145.42 12.416 144.724 12.672 143.94 13.024L142.74 10.6C143.716 10.152 144.66 9.816 145.572 9.592C146.5 9.368 147.412 9.256 148.308 9.256C149.988 9.256 151.292 9.664 152.22 10.48C153.164 11.28 153.636 12.416 153.636 13.888V22H150.396V21.136C149.868 21.504 149.308 21.776 148.716 21.952C148.14 22.128 147.492 22.216 146.772 22.216ZM145.356 18.304C145.356 18.784 145.564 19.168 145.98 19.456C146.396 19.728 146.948 19.864 147.636 19.864C148.18 19.864 148.676 19.8 149.124 19.672C149.588 19.528 150.012 19.328 150.396 19.072V17.2C149.996 17.04 149.572 16.928 149.124 16.864C148.692 16.784 148.236 16.744 147.756 16.744C147.004 16.744 146.412 16.888 145.98 17.176C145.564 17.448 145.356 17.824 145.356 18.304Z" fill="white"/>
<path d="M76.278 48V35.4H78.168V41.268L84.27 35.4H86.646L80.148 41.484L86.862 48H84.27L78.168 42.006V48H76.278ZM86.5816 43.41C86.5816 42.75 86.7016 42.132 86.9416 41.556C87.1936 40.968 87.5356 40.464 87.9676 40.044C88.3996 39.612 88.9036 39.276 89.4796 39.036C90.0676 38.784 90.6916 38.658 91.3516 38.658C92.0116 38.658 92.6296 38.784 93.2056 39.036C93.7936 39.276 94.2976 39.612 94.7176 40.044C95.1496 40.464 95.4856 40.968 95.7256 41.556C95.9776 42.132 96.1036 42.75 96.1036 43.41C96.1036 44.082 95.9776 44.712 95.7256 45.3C95.4856 45.876 95.1496 46.38 94.7176 46.812C94.2976 47.232 93.7936 47.568 93.2056 47.82C92.6296 48.06 92.0116 48.18 91.3516 48.18C90.6916 48.18 90.0676 48.06 89.4796 47.82C88.9036 47.568 88.3996 47.232 87.9676 46.812C87.5356 46.38 87.1936 45.876 86.9416 45.3C86.7016 44.712 86.5816 44.082 86.5816 43.41ZM91.3516 46.596C92.1796 46.596 92.8816 46.29 93.4576 45.678C94.0456 45.054 94.3396 44.298 94.3396 43.41C94.3396 42.522 94.0456 41.772 93.4576 41.16C92.8816 40.548 92.1796 40.242 91.3516 40.242C90.5236 40.242 89.8156 40.548 89.2276 41.16C88.6396 41.772 88.3456 42.522 88.3456 43.41C88.3456 44.298 88.6336 45.054 89.2096 45.678C89.7976 46.29 90.5116 46.596 91.3516 46.596ZM98.4316 45.732V40.35H96.4876V38.838H98.4316V36.498L100.214 36.066V38.838H102.914V40.35H100.214V45.318C100.214 45.786 100.316 46.116 100.52 46.308C100.736 46.5 101.084 46.596 101.564 46.596C101.816 46.596 102.038 46.584 102.23 46.56C102.434 46.524 102.65 46.464 102.878 46.38V47.892C102.638 47.976 102.356 48.042 102.032 48.09C101.72 48.138 101.432 48.162 101.168 48.162C100.28 48.162 99.6016 47.958 99.1336 47.55C98.6656 47.13 98.4316 46.524 98.4316 45.732ZM107.138 48.162C106.142 48.162 105.332 47.904 104.708 47.388C104.084 46.872 103.772 46.2 103.772 45.372C103.772 44.508 104.102 43.83 104.762 43.338C105.422 42.834 106.328 42.582 107.48 42.582C107.924 42.582 108.356 42.63 108.776 42.726C109.196 42.81 109.598 42.93 109.982 43.086V42.114C109.982 41.466 109.79 40.98 109.406 40.656C109.022 40.332 108.47 40.17 107.75 40.17C107.33 40.17 106.892 40.236 106.436 40.368C105.98 40.488 105.47 40.68 104.906 40.944L104.24 39.594C104.924 39.27 105.572 39.036 106.184 38.892C106.796 38.736 107.402 38.658 108.002 38.658C109.19 38.658 110.108 38.946 110.756 39.522C111.416 40.086 111.746 40.89 111.746 41.934V48H109.982V47.208C109.574 47.532 109.136 47.772 108.668 47.928C108.2 48.084 107.69 48.162 107.138 48.162ZM105.5 45.336C105.5 45.78 105.686 46.14 106.058 46.416C106.442 46.692 106.94 46.83 107.552 46.83C108.032 46.83 108.476 46.758 108.884 46.614C109.292 46.47 109.658 46.254 109.982 45.966V44.382C109.634 44.19 109.268 44.052 108.884 43.968C108.5 43.872 108.08 43.824 107.624 43.824C106.976 43.824 106.46 43.962 106.076 44.238C105.692 44.514 105.5 44.88 105.5 45.336ZM124.26 47.1L119.562 37.74V48H117.798V35.4H120.318L124.278 43.446L128.22 35.4H130.74V48H128.958V37.722L124.26 47.1ZM135.808 48.162C134.812 48.162 134.002 47.904 133.378 47.388C132.754 46.872 132.442 46.2 132.442 45.372C132.442 44.508 132.772 43.83 133.432 43.338C134.092 42.834 134.998 42.582 136.15 42.582C136.594 42.582 137.026 42.63 137.446 42.726C137.866 42.81 138.268 42.93 138.652 43.086V42.114C138.652 41.466 138.46 40.98 138.076 40.656C137.692 40.332 137.14 40.17 136.42 40.17C136 40.17 135.562 40.236 135.106 40.368C134.65 40.488 134.14 40.68 133.576 40.944L132.91 39.594C133.594 39.27 134.242 39.036 134.854 38.892C135.466 38.736 136.072 38.658 136.672 38.658C137.86 38.658 138.778 38.946 139.426 39.522C140.086 40.086 140.416 40.89 140.416 41.934V48H138.652V47.208C138.244 47.532 137.806 47.772 137.338 47.928C136.87 48.084 136.36 48.162 135.808 48.162ZM134.17 45.336C134.17 45.78 134.356 46.14 134.728 46.416C135.112 46.692 135.61 46.83 136.222 46.83C136.702 46.83 137.146 46.758 137.554 46.614C137.962 46.47 138.328 46.254 138.652 45.966V44.382C138.304 44.19 137.938 44.052 137.554 43.968C137.17 43.872 136.75 43.824 136.294 43.824C135.646 43.824 135.13 43.962 134.746 44.238C134.362 44.514 134.17 44.88 134.17 45.336ZM142.49 48V35.4L144.29 35.004V42.87L148.736 38.838H150.842L146.126 43.14L151.094 48H148.718L144.29 43.68V48H142.49ZM154.476 48.162C153.48 48.162 152.67 47.904 152.046 47.388C151.422 46.872 151.11 46.2 151.11 45.372C151.11 44.508 151.44 43.83 152.1 43.338C152.76 42.834 153.666 42.582 154.818 42.582C155.262 42.582 155.694 42.63 156.114 42.726C156.534 42.81 156.936 42.93 157.32 43.086V42.114C157.32 41.466 157.128 40.98 156.744 40.656C156.36 40.332 155.808 40.17 155.088 40.17C154.668 40.17 154.23 40.236 153.774 40.368C153.318 40.488 152.808 40.68 152.244 40.944L151.578 39.594C152.262 39.27 152.91 39.036 153.522 38.892C154.134 38.736 154.74 38.658 155.34 38.658C156.528 38.658 157.446 38.946 158.094 39.522C158.754 40.086 159.084 40.89 159.084 41.934V48H157.32V47.208C156.912 47.532 156.474 47.772 156.006 47.928C155.538 48.084 155.028 48.162 154.476 48.162ZM152.838 45.336C152.838 45.78 153.024 46.14 153.396 46.416C153.78 46.692 154.278 46.83 154.89 46.83C155.37 46.83 155.814 46.758 156.222 46.614C156.63 46.47 156.996 46.254 157.32 45.966V44.382C156.972 44.19 156.606 44.052 156.222 43.968C155.838 43.872 155.418 43.824 154.962 43.824C154.314 43.824 153.798 43.962 153.414 44.238C153.03 44.514 152.838 44.88 152.838 45.336ZM160.294 46.812L161.266 45.624C161.746 45.996 162.232 46.284 162.724 46.488C163.228 46.68 163.738 46.776 164.254 46.776C164.902 46.776 165.43 46.65 165.838 46.398C166.246 46.146 166.45 45.816 166.45 45.408C166.45 45.084 166.33 44.826 166.09 44.634C165.85 44.442 165.478 44.31 164.974 44.238L163.318 44.004C162.418 43.872 161.734 43.596 161.266 43.176C160.81 42.744 160.582 42.174 160.582 41.466C160.582 40.638 160.912 39.972 161.572 39.468C162.232 38.952 163.096 38.694 164.164 38.694C164.836 38.694 165.472 38.79 166.072 38.982C166.684 39.174 167.278 39.468 167.854 39.864L166.936 41.052C166.432 40.716 165.94 40.476 165.46 40.332C164.992 40.176 164.518 40.098 164.038 40.098C163.486 40.098 163.042 40.212 162.706 40.44C162.37 40.668 162.202 40.968 162.202 41.34C162.202 41.676 162.316 41.934 162.544 42.114C162.784 42.282 163.174 42.408 163.714 42.492L165.37 42.726C166.27 42.858 166.954 43.14 167.422 43.572C167.902 44.004 168.142 44.574 168.142 45.282C168.142 45.69 168.04 46.074 167.836 46.434C167.644 46.782 167.374 47.082 167.026 47.334C166.69 47.586 166.288 47.79 165.82 47.946C165.352 48.09 164.848 48.162 164.308 48.162C163.516 48.162 162.772 48.048 162.076 47.82C161.392 47.592 160.798 47.256 160.294 46.812ZM168.766 46.812L169.738 45.624C170.218 45.996 170.704 46.284 171.196 46.488C171.7 46.68 172.21 46.776 172.726 46.776C173.374 46.776 173.902 46.65 174.31 46.398C174.718 46.146 174.922 45.816 174.922 45.408C174.922 45.084 174.802 44.826 174.562 44.634C174.322 44.442 173.95 44.31 173.446 44.238L171.79 44.004C170.89 43.872 170.206 43.596 169.738 43.176C169.282 42.744 169.054 42.174 169.054 41.466C169.054 40.638 169.384 39.972 170.044 39.468C170.704 38.952 171.568 38.694 172.636 38.694C173.308 38.694 173.944 38.79 174.544 38.982C175.156 39.174 175.75 39.468 176.326 39.864L175.408 41.052C174.904 40.716 174.412 40.476 173.932 40.332C173.464 40.176 172.99 40.098 172.51 40.098C171.958 40.098 171.514 40.212 171.178 40.44C170.842 40.668 170.674 40.968 170.674 41.34C170.674 41.676 170.788 41.934 171.016 42.114C171.256 42.282 171.646 42.408 172.186 42.492L173.842 42.726C174.742 42.858 175.426 43.14 175.894 43.572C176.374 44.004 176.614 44.574 176.614 45.282C176.614 45.69 176.512 46.074 176.308 46.434C176.116 46.782 175.846 47.082 175.498 47.334C175.162 47.586 174.76 47.79 174.292 47.946C173.824 48.09 173.32 48.162 172.78 48.162C171.988 48.162 171.244 48.048 170.548 47.82C169.864 47.592 169.27 47.256 168.766 46.812ZM180.983 48.162C179.987 48.162 179.177 47.904 178.553 47.388C177.929 46.872 177.617 46.2 177.617 45.372C177.617 44.508 177.947 43.83 178.607 43.338C179.267 42.834 180.173 42.582 181.325 42.582C181.769 42.582 182.201 42.63 182.621 42.726C183.041 42.81 183.443 42.93 183.827 43.086V42.114C183.827 41.466 183.635 40.98 183.251 40.656C182.867 40.332 182.315 40.17 181.595 40.17C181.175 40.17 180.737 40.236 180.281 40.368C179.825 40.488 179.315 40.68 178.751 40.944L178.085 39.594C178.769 39.27 179.417 39.036 180.029 38.892C180.641 38.736 181.247 38.658 181.847 38.658C183.035 38.658 183.953 38.946 184.601 39.522C185.261 40.086 185.591 40.89 185.591 41.934V48H183.827V47.208C183.419 47.532 182.981 47.772 182.513 47.928C182.045 48.084 181.535 48.162 180.983 48.162ZM179.345 45.336C179.345 45.78 179.531 46.14 179.903 46.416C180.287 46.692 180.785 46.83 181.397 46.83C181.877 46.83 182.321 46.758 182.729 46.614C183.137 46.47 183.503 46.254 183.827 45.966V44.382C183.479 44.19 183.113 44.052 182.729 43.968C182.345 43.872 181.925 43.824 181.469 43.824C180.821 43.824 180.305 43.962 179.921 44.238C179.537 44.514 179.345 44.88 179.345 45.336ZM187.666 48V38.838H189.466V40.008C189.742 39.564 190.096 39.228 190.528 39C190.96 38.76 191.446 38.64 191.986 38.64C192.178 38.64 192.346 38.652 192.49 38.676C192.634 38.7 192.772 38.736 192.904 38.784V40.404C192.736 40.344 192.562 40.296 192.382 40.26C192.202 40.224 192.022 40.206 191.842 40.206C191.314 40.206 190.84 40.35 190.42 40.638C190.012 40.914 189.694 41.328 189.466 41.88V48H187.666Z" fill="white"/>
<path fill-rule="evenodd" clip-rule="evenodd" d="M0 25.5876L8.66825 16.9193C9.5258 16.224 11.0323 16.2472 11.913 16.9193L21.0217 24.0347C21.9951 24.8227 23.5016 24.8459 24.3824 23.8956L40.7686 6.1883L38.3118 3.82423L49.5527 0L45.8676 11.2873L43.7121 9.13179L24.2665 30.1766C23.3857 30.9647 21.9951 30.9647 21.0448 30.1766L11.9362 22.5745C10.8701 21.7402 9.71122 21.7402 8.69143 22.5745L0.0231771 31.2428V25.5644L0 25.5876Z" fill="white"/>
<path fill-rule="evenodd" clip-rule="evenodd" d="M13.605 28.7393V45.6818C13.605 46.9566 12.562 47.9995 11.2873 47.9995H2.31771C1.04297 47.9995 0 46.9566 0 45.6818V36.1792L9.85028 26.3289C10.1979 26.074 10.4529 26.0971 10.8005 26.3984L13.605 28.7393Z" fill="white"/>
<path fill-rule="evenodd" clip-rule="evenodd" d="M29.8753 29.1566V45.6819C29.8753 46.9566 28.8323 47.9996 27.5576 47.9996H18.588C17.3133 47.9996 16.2703 46.9566 16.2703 45.6819V30.9644L19.8628 33.9774C21.5084 35.2985 23.8724 35.3449 25.4485 33.931L25.518 33.8847L29.8753 29.1566Z" fill="white"/>
<path fill-rule="evenodd" clip-rule="evenodd" d="M42.3678 15.6447H43.8512C45.1259 15.6447 46.1689 16.6877 46.1689 17.9624V45.6823C46.1689 46.957 45.1259 48 43.8512 48H34.8816C33.6069 48 32.5639 46.957 32.5639 45.6823V26.2598L42.391 15.6447H42.3678Z" fill="white"/>
</svg>
