<svg width="262" height="55" viewBox="0 0 262 55" fill="none" xmlns="http://www.w3.org/2000/svg">
<path fill-rule="evenodd" clip-rule="evenodd" d="M0.070628 23.4205C0.013337 23.9218 0.00121777 24.5802 0.00121777 25.4893V45.7971V47.1863C0.00121777 47.1863 -0.155231 49 3.07841 49L27.4965 45.7971C27.4965 45.7971 28 45.5376 28 44.7789V24.9946C28 24.9946 27.9306 23.973 26.4708 23.8628C25.011 23.7525 3.60064 21.0621 3.60064 21.0621C1.24069 20.759 0.283266 21.5689 0.0695263 23.4216L0.070628 23.4205ZM17.8947 30.9826C17.8947 29.8741 17.4562 28.8748 16.7555 28.1496C16.0504 27.4199 15.0787 26.9587 14.0056 26.9587C12.9303 26.9587 11.953 27.4288 11.2512 28.1964C10.5461 28.9695 10.112 30.0435 10.112 31.2177C10.112 32.3941 10.5461 33.4413 11.2512 34.1699C11.953 34.8962 12.9281 35.304 14.0034 35.2382C15.0776 35.1725 16.0471 34.6556 16.7533 33.8825C17.454 33.1149 17.8936 32.0922 17.8936 30.9826H17.8947ZM13.9934 36.4214C12.0004 36.5595 10.188 37.5677 8.88794 39.1118C7.64296 40.5901 6.85631 42.5564 6.77588 44.6541L21.2253 42.7591C21.113 40.9388 20.3153 39.3647 19.1034 38.2328C17.7857 37.0018 15.9843 36.2821 13.9934 36.4214Z" fill="white"/>
<path fill-rule="evenodd" clip-rule="evenodd" d="M1.55725 6H51.1051C51.9611 6 52.6624 6.7001 52.6624 7.55725V14.0692C52.6624 14.9251 51.9623 15.6264 51.1051 15.6264H1.55725C0.701302 15.6264 0 14.9263 0 14.0692V7.55725C0 6.7001 0.700103 6 1.55725 6V6ZM46.0438 12.4412C45.1447 12.4412 44.4158 11.7123 44.4158 10.8132C44.4158 9.9141 45.1447 9.18523 46.0438 9.18523C46.9429 9.18523 47.6718 9.9141 47.6718 10.8132C47.6718 11.7123 46.9429 12.4412 46.0438 12.4412ZM39.816 12.4412C38.9169 12.4412 38.188 11.7123 38.188 10.8132C38.188 9.9141 38.9169 9.18523 39.816 9.18523C40.7151 9.18523 41.444 9.9141 41.444 10.8132C41.444 11.7123 40.7151 12.4412 39.816 12.4412Z" fill="white"/>
<path fill-rule="evenodd" clip-rule="evenodd" d="M34 21H51.1477C52.0037 21 52.705 21.7001 52.705 22.5573V29.0692C52.705 29.9251 52.0049 30.6264 51.1477 30.6264H34V21Z" fill="#0A9F82"/>
<path fill-rule="evenodd" clip-rule="evenodd" d="M33.9579 36.0122H51.1056C51.9615 36.0122 52.6628 36.7123 52.6628 37.5694V44.0813C52.6628 44.9373 51.9627 45.6386 51.1056 45.6386H33.9579V36.0122Z" fill="#F2C942"/>
<path d="M74.512 22V5.2H80.968C82.216 5.2 83.384 5.416 84.472 5.848C85.56 6.28 86.496 6.872 87.28 7.624C88.08 8.376 88.704 9.272 89.152 10.312C89.616 11.352 89.848 12.464 89.848 13.648C89.848 14.816 89.616 15.912 89.152 16.936C88.704 17.96 88.08 18.848 87.28 19.6C86.496 20.336 85.56 20.92 84.472 21.352C83.384 21.784 82.216 22 80.968 22H74.512ZM80.944 8.296H77.992V18.904H80.944C81.68 18.904 82.368 18.768 83.008 18.496C83.664 18.224 84.232 17.856 84.712 17.392C85.192 16.912 85.568 16.352 85.84 15.712C86.112 15.072 86.248 14.384 86.248 13.648C86.248 12.896 86.112 12.192 85.84 11.536C85.568 10.88 85.192 10.312 84.712 9.832C84.232 9.352 83.664 8.976 83.008 8.704C82.368 8.432 81.68 8.296 80.944 8.296ZM93.6468 8.008C93.1348 8.008 92.6948 7.824 92.3268 7.456C91.9588 7.088 91.7748 6.648 91.7748 6.136C91.7748 5.624 91.9588 5.184 92.3268 4.816C92.6948 4.448 93.1348 4.264 93.6468 4.264C94.1588 4.264 94.5988 4.448 94.9668 4.816C95.3348 5.184 95.5188 5.624 95.5188 6.136C95.5188 6.648 95.3348 7.088 94.9668 7.456C94.5988 7.824 94.1588 8.008 93.6468 8.008ZM95.3028 9.496V22H92.0148V9.496H95.3028ZM103.634 22.072C102.754 22.072 101.922 21.904 101.138 21.568C100.37 21.232 99.6981 20.776 99.1221 20.2C98.5621 19.624 98.1141 18.952 97.7781 18.184C97.4581 17.4 97.2981 16.56 97.2981 15.664C97.2981 14.784 97.4661 13.96 97.8021 13.192C98.1381 12.408 98.5941 11.728 99.1701 11.152C99.7461 10.576 100.426 10.128 101.21 9.808C101.994 9.472 102.834 9.304 103.73 9.304C104.354 9.304 104.946 9.392 105.506 9.568C106.082 9.744 106.618 9.992 107.114 10.312V9.496H110.354V22C110.354 23.648 109.818 24.92 108.746 25.816C107.69 26.712 106.162 27.16 104.162 27.16C103.202 27.16 102.274 27.064 101.378 26.872C100.498 26.68 99.6901 26.4 98.9541 26.032L100.106 23.464C100.794 23.8 101.466 24.048 102.122 24.208C102.778 24.384 103.434 24.472 104.09 24.472C105.066 24.472 105.802 24.256 106.298 23.824C106.81 23.408 107.066 22.792 107.066 21.976V20.944C106.57 21.312 106.026 21.592 105.434 21.784C104.858 21.976 104.258 22.072 103.634 22.072ZM100.538 15.664C100.538 16.672 100.882 17.528 101.57 18.232C102.274 18.936 103.13 19.288 104.138 19.288C104.73 19.288 105.274 19.192 105.77 19C106.266 18.792 106.698 18.512 107.066 18.16V13.24C106.714 12.888 106.282 12.616 105.77 12.424C105.258 12.216 104.722 12.112 104.162 12.112C103.154 12.112 102.298 12.456 101.594 13.144C100.89 13.832 100.538 14.672 100.538 15.664ZM114.576 8.008C114.064 8.008 113.624 7.824 113.256 7.456C112.888 7.088 112.704 6.648 112.704 6.136C112.704 5.624 112.888 5.184 113.256 4.816C113.624 4.448 114.064 4.264 114.576 4.264C115.088 4.264 115.528 4.448 115.896 4.816C116.264 5.184 116.448 5.624 116.448 6.136C116.448 6.648 116.264 7.088 115.896 7.456C115.528 7.824 115.088 8.008 114.576 8.008ZM116.232 9.496V22H112.944V9.496H116.232ZM120.508 18.472V12.256H117.94V9.496H120.508V6.304L123.796 5.56V9.496H127.348V12.256H123.796V17.8C123.796 18.392 123.924 18.808 124.18 19.048C124.436 19.288 124.884 19.408 125.524 19.408C125.828 19.408 126.116 19.392 126.388 19.36C126.66 19.312 126.956 19.232 127.276 19.12V21.808C126.924 21.92 126.5 22.008 126.004 22.072C125.508 22.152 125.084 22.192 124.732 22.192C123.34 22.192 122.284 21.88 121.564 21.256C120.86 20.616 120.508 19.688 120.508 18.472ZM132.936 22.216C131.592 22.216 130.496 21.864 129.648 21.16C128.8 20.44 128.376 19.512 128.376 18.376C128.376 17.192 128.832 16.264 129.744 15.592C130.656 14.92 131.912 14.584 133.512 14.584C134.024 14.584 134.536 14.624 135.048 14.704C135.56 14.784 136.064 14.904 136.56 15.064V14.176C136.56 13.456 136.336 12.912 135.888 12.544C135.44 12.176 134.784 11.992 133.92 11.992C133.392 11.992 132.816 12.08 132.192 12.256C131.584 12.416 130.888 12.672 130.104 13.024L128.904 10.6C129.88 10.152 130.824 9.816 131.736 9.592C132.664 9.368 133.576 9.256 134.472 9.256C136.152 9.256 137.456 9.664 138.384 10.48C139.328 11.28 139.8 12.416 139.8 13.888V22H136.56V21.136C136.032 21.504 135.472 21.776 134.88 21.952C134.304 22.128 133.656 22.216 132.936 22.216ZM131.52 18.304C131.52 18.784 131.728 19.168 132.144 19.456C132.56 19.728 133.112 19.864 133.8 19.864C134.344 19.864 134.84 19.8 135.288 19.672C135.752 19.528 136.176 19.328 136.56 19.072V17.2C136.16 17.04 135.736 16.928 135.288 16.864C134.856 16.784 134.4 16.744 133.92 16.744C133.168 16.744 132.576 16.888 132.144 17.176C131.728 17.448 131.52 17.824 131.52 18.304ZM145.576 4.48V22H142.288V5.2L145.576 4.48ZM151.584 22L158.496 5.2H162.528L169.344 22H165.576L163.872 17.584H156.936L155.208 22H151.584ZM158.016 14.8H162.816L160.44 8.608L158.016 14.8ZM183.706 15.76C183.706 16.656 183.538 17.496 183.202 18.28C182.866 19.064 182.41 19.744 181.834 20.32C181.258 20.896 180.57 21.352 179.77 21.688C178.986 22.008 178.146 22.168 177.25 22.168C176.626 22.168 176.018 22.08 175.426 21.904C174.834 21.728 174.29 21.48 173.794 21.16V22H170.554V5.2L173.842 4.48V10.48C174.338 10.112 174.882 9.832 175.474 9.64C176.082 9.432 176.706 9.328 177.346 9.328C178.226 9.328 179.05 9.496 179.818 9.832C180.602 10.168 181.282 10.624 181.858 11.2C182.434 11.776 182.882 12.456 183.202 13.24C183.538 14.024 183.706 14.864 183.706 15.76ZM176.818 12.136C176.226 12.136 175.674 12.24 175.162 12.448C174.65 12.64 174.21 12.928 173.842 13.312V18.232C174.194 18.584 174.626 18.864 175.138 19.072C175.666 19.28 176.226 19.384 176.818 19.384C177.842 19.384 178.706 19.04 179.41 18.352C180.114 17.648 180.466 16.784 180.466 15.76C180.466 14.736 180.106 13.88 179.386 13.192C178.682 12.488 177.826 12.136 176.818 12.136ZM184.662 20.512L186.294 18.328C187.03 18.808 187.726 19.168 188.382 19.408C189.038 19.632 189.694 19.744 190.35 19.744C191.086 19.744 191.67 19.624 192.102 19.384C192.55 19.144 192.774 18.824 192.774 18.424C192.774 18.104 192.646 17.848 192.39 17.656C192.15 17.464 191.758 17.328 191.214 17.248L188.814 16.888C187.582 16.696 186.638 16.296 185.982 15.688C185.342 15.08 185.022 14.272 185.022 13.264C185.022 12.064 185.494 11.104 186.438 10.384C187.382 9.664 188.646 9.304 190.23 9.304C191.142 9.304 192.03 9.44 192.894 9.712C193.758 9.968 194.582 10.352 195.366 10.864L193.782 12.976C193.094 12.576 192.438 12.28 191.814 12.088C191.19 11.88 190.558 11.776 189.918 11.776C189.326 11.776 188.846 11.888 188.478 12.112C188.126 12.336 187.95 12.632 187.95 13C187.95 13.336 188.078 13.6 188.334 13.792C188.606 13.968 189.046 14.096 189.654 14.176L192.054 14.536C193.27 14.712 194.206 15.112 194.862 15.736C195.534 16.36 195.87 17.152 195.87 18.112C195.87 18.704 195.726 19.256 195.438 19.768C195.166 20.264 194.79 20.696 194.31 21.064C193.83 21.432 193.254 21.72 192.582 21.928C191.91 22.136 191.182 22.24 190.398 22.24C189.262 22.24 188.198 22.096 187.206 21.808C186.214 21.504 185.366 21.072 184.662 20.512ZM208.832 20.44C208.064 21.064 207.272 21.52 206.456 21.808C205.656 22.096 204.76 22.24 203.768 22.24C202.824 22.24 201.936 22.072 201.104 21.736C200.288 21.4 199.576 20.944 198.968 20.368C198.376 19.792 197.904 19.112 197.552 18.328C197.216 17.528 197.048 16.672 197.048 15.76C197.048 14.864 197.208 14.024 197.528 13.24C197.864 12.44 198.32 11.752 198.896 11.176C199.472 10.584 200.152 10.12 200.936 9.784C201.736 9.448 202.584 9.28 203.48 9.28C204.36 9.28 205.176 9.456 205.928 9.808C206.696 10.144 207.352 10.608 207.896 11.2C208.456 11.792 208.888 12.504 209.192 13.336C209.512 14.152 209.672 15.04 209.672 16V16.864H200.36C200.584 17.648 201.016 18.28 201.656 18.76C202.296 19.24 203.048 19.48 203.912 19.48C204.456 19.48 204.968 19.392 205.448 19.216C205.928 19.04 206.336 18.792 206.672 18.472L208.832 20.44ZM203.408 11.992C202.656 11.992 202.008 12.224 201.464 12.688C200.92 13.136 200.544 13.744 200.336 14.512H206.456C206.248 13.776 205.864 13.176 205.304 12.712C204.76 12.232 204.128 11.992 203.408 11.992ZM211.687 22V9.496H214.975V10.48C215.455 10.08 215.983 9.776 216.559 9.568C217.151 9.36 217.791 9.256 218.479 9.256C219.919 9.256 221.103 9.72 222.031 10.648C222.959 11.576 223.423 12.768 223.423 14.224V22H220.135V14.704C220.135 13.92 219.895 13.288 219.415 12.808C218.951 12.328 218.327 12.088 217.543 12.088C216.999 12.088 216.503 12.2 216.055 12.424C215.623 12.632 215.263 12.936 214.975 13.336V22H211.687ZM224.857 20.512L226.489 18.328C227.225 18.808 227.921 19.168 228.577 19.408C229.233 19.632 229.889 19.744 230.545 19.744C231.281 19.744 231.865 19.624 232.297 19.384C232.745 19.144 232.969 18.824 232.969 18.424C232.969 18.104 232.841 17.848 232.585 17.656C232.345 17.464 231.953 17.328 231.409 17.248L229.009 16.888C227.777 16.696 226.833 16.296 226.177 15.688C225.537 15.08 225.217 14.272 225.217 13.264C225.217 12.064 225.689 11.104 226.633 10.384C227.577 9.664 228.841 9.304 230.425 9.304C231.337 9.304 232.225 9.44 233.089 9.712C233.953 9.968 234.777 10.352 235.561 10.864L233.977 12.976C233.289 12.576 232.633 12.28 232.009 12.088C231.385 11.88 230.753 11.776 230.113 11.776C229.521 11.776 229.041 11.888 228.673 12.112C228.321 12.336 228.145 12.632 228.145 13C228.145 13.336 228.273 13.6 228.529 13.792C228.801 13.968 229.241 14.096 229.849 14.176L232.249 14.536C233.465 14.712 234.401 15.112 235.057 15.736C235.729 16.36 236.065 17.152 236.065 18.112C236.065 18.704 235.921 19.256 235.633 19.768C235.361 20.264 234.985 20.696 234.505 21.064C234.025 21.432 233.449 21.72 232.777 21.928C232.105 22.136 231.377 22.24 230.593 22.24C229.457 22.24 228.393 22.096 227.401 21.808C226.409 21.504 225.561 21.072 224.857 20.512ZM239.334 8.008C238.822 8.008 238.382 7.824 238.014 7.456C237.646 7.088 237.462 6.648 237.462 6.136C237.462 5.624 237.646 5.184 238.014 4.816C238.382 4.448 238.822 4.264 239.334 4.264C239.846 4.264 240.286 4.448 240.654 4.816C241.022 5.184 241.206 5.624 241.206 6.136C241.206 6.648 241.022 7.088 240.654 7.456C240.286 7.824 239.846 8.008 239.334 8.008ZM240.99 9.496V22H237.702V9.496H240.99Z" fill="white"/>
<path d="M74.278 48V35.4H76.168V41.268L82.27 35.4H84.646L78.148 41.484L84.862 48H82.27L76.168 42.006V48H74.278ZM88.1748 48.162C87.1788 48.162 86.3688 47.904 85.7448 47.388C85.1208 46.872 84.8088 46.2 84.8088 45.372C84.8088 44.508 85.1388 43.83 85.7988 43.338C86.4588 42.834 87.3648 42.582 88.5168 42.582C88.9608 42.582 89.3928 42.63 89.8128 42.726C90.2328 42.81 90.6348 42.93 91.0188 43.086V42.114C91.0188 41.466 90.8268 40.98 90.4428 40.656C90.0588 40.332 89.5068 40.17 88.7868 40.17C88.3668 40.17 87.9288 40.236 87.4728 40.368C87.0168 40.488 86.5068 40.68 85.9428 40.944L85.2768 39.594C85.9608 39.27 86.6088 39.036 87.2208 38.892C87.8328 38.736 88.4388 38.658 89.0388 38.658C90.2268 38.658 91.1448 38.946 91.7928 39.522C92.4528 40.086 92.7828 40.89 92.7828 41.934V48H91.0188V47.208C90.6108 47.532 90.1728 47.772 89.7048 47.928C89.2368 48.084 88.7268 48.162 88.1748 48.162ZM86.5368 45.336C86.5368 45.78 86.7228 46.14 87.0948 46.416C87.4788 46.692 87.9768 46.83 88.5888 46.83C89.0688 46.83 89.5128 46.758 89.9208 46.614C90.3288 46.47 90.6948 46.254 91.0188 45.966V44.382C90.6708 44.19 90.3048 44.052 89.9208 43.968C89.5368 43.872 89.1168 43.824 88.6608 43.824C88.0128 43.824 87.4968 43.962 87.1128 44.238C86.7288 44.514 86.5368 44.88 86.5368 45.336ZM104.073 43.41C104.073 44.07 103.953 44.694 103.713 45.282C103.473 45.858 103.143 46.356 102.723 46.776C102.315 47.196 101.823 47.532 101.247 47.784C100.671 48.024 100.059 48.144 99.4109 48.144C98.8949 48.144 98.4029 48.066 97.9349 47.91C97.4669 47.754 97.0349 47.526 96.6389 47.226V48H94.8569V35.4L96.6569 35.004V39.702C97.0289 39.378 97.4549 39.132 97.9349 38.964C98.4149 38.784 98.9189 38.694 99.4469 38.694C100.095 38.694 100.701 38.82 101.265 39.072C101.829 39.312 102.315 39.642 102.723 40.062C103.143 40.482 103.473 40.98 103.713 41.556C103.953 42.132 104.073 42.75 104.073 43.41ZM99.2129 40.26C98.6969 40.26 98.2169 40.356 97.7729 40.548C97.3289 40.74 96.9569 41.01 96.6569 41.358V45.498C96.9449 45.834 97.3109 46.098 97.7549 46.29C98.2109 46.482 98.6969 46.578 99.2129 46.578C100.089 46.578 100.821 46.278 101.409 45.678C102.009 45.078 102.309 44.328 102.309 43.428C102.309 42.528 102.009 41.778 101.409 41.178C100.809 40.566 100.077 40.26 99.2129 40.26ZM107.555 38.838V44.274C107.555 44.994 107.759 45.564 108.167 45.984C108.587 46.404 109.139 46.614 109.823 46.614C110.303 46.614 110.735 46.512 111.119 46.308C111.503 46.092 111.821 45.792 112.073 45.408V38.838H113.873V48H112.073V47.082C111.713 47.442 111.299 47.718 110.831 47.91C110.375 48.09 109.871 48.18 109.319 48.18C108.275 48.18 107.417 47.844 106.745 47.172C106.085 46.5 105.755 45.636 105.755 44.58V38.838H107.555ZM116.003 51.726V38.838H117.785V39.72C118.157 39.384 118.583 39.132 119.063 38.964C119.543 38.784 120.053 38.694 120.593 38.694C121.241 38.694 121.847 38.82 122.411 39.072C122.975 39.312 123.461 39.642 123.869 40.062C124.289 40.482 124.619 40.98 124.859 41.556C125.099 42.132 125.219 42.75 125.219 43.41C125.219 44.07 125.099 44.694 124.859 45.282C124.619 45.858 124.289 46.356 123.869 46.776C123.461 47.196 122.969 47.532 122.393 47.784C121.817 48.024 121.205 48.144 120.557 48.144C120.053 48.144 119.561 48.066 119.081 47.91C118.613 47.754 118.187 47.532 117.803 47.244V51.726H116.003ZM120.359 40.26C119.843 40.26 119.363 40.356 118.919 40.548C118.475 40.74 118.103 41.01 117.803 41.358V45.498C118.091 45.834 118.457 46.098 118.901 46.29C119.357 46.482 119.843 46.578 120.359 46.578C121.235 46.578 121.967 46.278 122.555 45.678C123.155 45.078 123.455 44.328 123.455 43.428C123.455 42.528 123.155 41.778 122.555 41.178C121.955 40.566 121.223 40.26 120.359 40.26ZM129.923 48.162C128.927 48.162 128.117 47.904 127.493 47.388C126.869 46.872 126.557 46.2 126.557 45.372C126.557 44.508 126.887 43.83 127.547 43.338C128.207 42.834 129.113 42.582 130.265 42.582C130.709 42.582 131.141 42.63 131.561 42.726C131.981 42.81 132.383 42.93 132.767 43.086V42.114C132.767 41.466 132.575 40.98 132.191 40.656C131.807 40.332 131.255 40.17 130.535 40.17C130.115 40.17 129.677 40.236 129.221 40.368C128.765 40.488 128.255 40.68 127.691 40.944L127.025 39.594C127.709 39.27 128.357 39.036 128.969 38.892C129.581 38.736 130.187 38.658 130.787 38.658C131.975 38.658 132.893 38.946 133.541 39.522C134.201 40.086 134.531 40.89 134.531 41.934V48H132.767V47.208C132.359 47.532 131.921 47.772 131.453 47.928C130.985 48.084 130.475 48.162 129.923 48.162ZM128.285 45.336C128.285 45.78 128.471 46.14 128.843 46.416C129.227 46.692 129.725 46.83 130.337 46.83C130.817 46.83 131.261 46.758 131.669 46.614C132.077 46.47 132.443 46.254 132.767 45.966V44.382C132.419 44.19 132.053 44.052 131.669 43.968C131.285 43.872 130.865 43.824 130.409 43.824C129.761 43.824 129.245 43.962 128.861 44.238C128.477 44.514 128.285 44.88 128.285 45.336ZM137.441 45.732V40.35H135.497V38.838H137.441V36.498L139.223 36.066V38.838H141.923V40.35H139.223V45.318C139.223 45.786 139.325 46.116 139.529 46.308C139.745 46.5 140.093 46.596 140.573 46.596C140.825 46.596 141.047 46.584 141.239 46.56C141.443 46.524 141.659 46.464 141.887 46.38V47.892C141.647 47.976 141.365 48.042 141.041 48.09C140.729 48.138 140.441 48.162 140.177 48.162C139.289 48.162 138.611 47.958 138.143 47.55C137.675 47.13 137.441 46.524 137.441 45.732ZM150.994 46.956C150.466 47.364 149.914 47.67 149.338 47.874C148.762 48.066 148.132 48.162 147.448 48.162C146.776 48.162 146.146 48.042 145.558 47.802C144.97 47.55 144.46 47.214 144.028 46.794C143.596 46.374 143.254 45.876 143.002 45.3C142.762 44.712 142.642 44.082 142.642 43.41C142.642 42.75 142.762 42.132 143.002 41.556C143.242 40.98 143.566 40.482 143.974 40.062C144.382 39.642 144.868 39.312 145.432 39.072C145.996 38.82 146.596 38.694 147.232 38.694C147.856 38.694 148.438 38.82 148.978 39.072C149.53 39.312 149.998 39.648 150.382 40.08C150.778 40.5 151.09 41.004 151.318 41.592C151.546 42.18 151.66 42.81 151.66 43.482V44.004H144.424C144.544 44.76 144.892 45.39 145.468 45.894C146.044 46.386 146.728 46.632 147.52 46.632C147.964 46.632 148.39 46.56 148.798 46.416C149.206 46.272 149.554 46.074 149.842 45.822L150.994 46.956ZM147.196 40.206C146.512 40.206 145.912 40.434 145.396 40.89C144.892 41.346 144.574 41.934 144.442 42.654H149.878C149.746 41.958 149.428 41.376 148.924 40.908C148.432 40.44 147.856 40.206 147.196 40.206ZM153.375 48V38.838H155.175V39.756C155.535 39.396 155.943 39.126 156.399 38.946C156.867 38.754 157.377 38.658 157.929 38.658C158.973 38.658 159.831 38.994 160.503 39.666C161.175 40.326 161.511 41.184 161.511 42.24V48H159.711V42.546C159.711 41.826 159.501 41.262 159.081 40.854C158.673 40.434 158.127 40.224 157.443 40.224C156.963 40.224 156.525 40.326 156.129 40.53C155.745 40.734 155.427 41.028 155.175 41.412V48H153.375ZM166.431 45.912L167.583 44.58C168.267 45.24 168.963 45.738 169.671 46.074C170.391 46.398 171.141 46.56 171.921 46.56C172.821 46.56 173.553 46.362 174.117 45.966C174.693 45.57 174.981 45.066 174.981 44.454C174.981 43.902 174.783 43.476 174.387 43.176C173.991 42.864 173.337 42.63 172.425 42.474L170.319 42.132C169.167 41.94 168.303 41.574 167.727 41.034C167.163 40.482 166.881 39.756 166.881 38.856C166.881 37.764 167.307 36.888 168.159 36.228C169.011 35.568 170.133 35.238 171.525 35.238C172.425 35.238 173.319 35.388 174.207 35.688C175.095 35.976 175.893 36.396 176.601 36.948L175.557 38.388C174.873 37.872 174.189 37.488 173.505 37.236C172.821 36.972 172.131 36.84 171.435 36.84C170.619 36.84 169.959 37.014 169.455 37.362C168.951 37.71 168.699 38.16 168.699 38.712C168.699 39.228 168.873 39.624 169.221 39.9C169.569 40.164 170.145 40.362 170.949 40.494L172.983 40.818C174.303 41.034 175.275 41.43 175.899 42.006C176.535 42.57 176.853 43.338 176.853 44.31C176.853 44.886 176.733 45.414 176.493 45.894C176.253 46.374 175.911 46.782 175.467 47.118C175.035 47.454 174.507 47.718 173.883 47.91C173.259 48.09 172.575 48.18 171.831 48.18C170.823 48.18 169.851 47.982 168.915 47.586C167.979 47.19 167.151 46.632 166.431 45.912ZM179.288 37.362C178.988 37.362 178.73 37.254 178.514 37.038C178.298 36.81 178.19 36.546 178.19 36.246C178.19 35.946 178.298 35.688 178.514 35.472C178.73 35.244 178.988 35.13 179.288 35.13C179.588 35.13 179.846 35.244 180.062 35.472C180.29 35.688 180.404 35.946 180.404 36.246C180.404 36.546 180.29 36.81 180.062 37.038C179.846 37.254 179.588 37.362 179.288 37.362ZM180.188 38.838V48H178.388V38.838H180.188ZM189.328 48V47.136C188.944 47.46 188.512 47.712 188.032 47.892C187.552 48.06 187.048 48.144 186.52 48.144C185.872 48.144 185.266 48.024 184.702 47.784C184.138 47.532 183.646 47.196 183.226 46.776C182.818 46.356 182.494 45.858 182.254 45.282C182.014 44.694 181.894 44.07 181.894 43.41C181.894 42.75 182.014 42.132 182.254 41.556C182.494 40.98 182.818 40.482 183.226 40.062C183.646 39.642 184.144 39.312 184.72 39.072C185.296 38.82 185.908 38.694 186.556 38.694C187.06 38.694 187.546 38.772 188.014 38.928C188.482 39.084 188.914 39.306 189.31 39.594V35.4L191.11 35.004V48H189.328ZM183.658 43.392C183.658 44.292 183.958 45.048 184.558 45.66C185.158 46.272 185.896 46.578 186.772 46.578C187.288 46.578 187.762 46.482 188.194 46.29C188.638 46.098 189.01 45.828 189.31 45.48V41.322C189.01 40.986 188.638 40.722 188.194 40.53C187.75 40.338 187.276 40.242 186.772 40.242C185.896 40.242 185.158 40.542 184.558 41.142C183.958 41.742 183.658 42.492 183.658 43.392ZM193.242 48V38.838H195.042V40.008C195.318 39.564 195.672 39.228 196.104 39C196.536 38.76 197.022 38.64 197.562 38.64C197.754 38.64 197.922 38.652 198.066 38.676C198.21 38.7 198.348 38.736 198.48 38.784V40.404C198.312 40.344 198.138 40.296 197.958 40.26C197.778 40.224 197.598 40.206 197.418 40.206C196.89 40.206 196.416 40.35 195.996 40.638C195.588 40.914 195.27 41.328 195.042 41.88V48H193.242ZM202.433 48.162C201.437 48.162 200.627 47.904 200.003 47.388C199.379 46.872 199.067 46.2 199.067 45.372C199.067 44.508 199.397 43.83 200.057 43.338C200.717 42.834 201.623 42.582 202.775 42.582C203.219 42.582 203.651 42.63 204.071 42.726C204.491 42.81 204.893 42.93 205.277 43.086V42.114C205.277 41.466 205.085 40.98 204.701 40.656C204.317 40.332 203.765 40.17 203.045 40.17C202.625 40.17 202.187 40.236 201.731 40.368C201.275 40.488 200.765 40.68 200.201 40.944L199.535 39.594C200.219 39.27 200.867 39.036 201.479 38.892C202.091 38.736 202.697 38.658 203.297 38.658C204.485 38.658 205.403 38.946 206.051 39.522C206.711 40.086 207.041 40.89 207.041 41.934V48H205.277V47.208C204.869 47.532 204.431 47.772 203.963 47.928C203.495 48.084 202.985 48.162 202.433 48.162ZM200.795 45.336C200.795 45.78 200.981 46.14 201.353 46.416C201.737 46.692 202.235 46.83 202.847 46.83C203.327 46.83 203.771 46.758 204.179 46.614C204.587 46.47 204.953 46.254 205.277 45.966V44.382C204.929 44.19 204.563 44.052 204.179 43.968C203.795 43.872 203.375 43.824 202.919 43.824C202.271 43.824 201.755 43.962 201.371 44.238C200.987 44.514 200.795 44.88 200.795 45.336ZM209.115 51.726V38.838H210.897V39.72C211.269 39.384 211.695 39.132 212.175 38.964C212.655 38.784 213.165 38.694 213.705 38.694C214.353 38.694 214.959 38.82 215.523 39.072C216.087 39.312 216.573 39.642 216.981 40.062C217.401 40.482 217.731 40.98 217.971 41.556C218.211 42.132 218.331 42.75 218.331 43.41C218.331 44.07 218.211 44.694 217.971 45.282C217.731 45.858 217.401 46.356 216.981 46.776C216.573 47.196 216.081 47.532 215.505 47.784C214.929 48.024 214.317 48.144 213.669 48.144C213.165 48.144 212.673 48.066 212.193 47.91C211.725 47.754 211.299 47.532 210.915 47.244V51.726H209.115ZM213.471 40.26C212.955 40.26 212.475 40.356 212.031 40.548C211.587 40.74 211.215 41.01 210.915 41.358V45.498C211.203 45.834 211.569 46.098 212.013 46.29C212.469 46.482 212.955 46.578 213.471 46.578C214.347 46.578 215.079 46.278 215.667 45.678C216.267 45.078 216.567 44.328 216.567 43.428C216.567 42.528 216.267 41.778 215.667 41.178C215.067 40.566 214.335 40.26 213.471 40.26Z" fill="white"/>
</svg>
