<svg width="270" height="55" viewBox="0 0 270 55" fill="none" xmlns="http://www.w3.org/2000/svg">
<path d="M79.512 22V5.2H85.968C87.216 5.2 88.384 5.416 89.472 5.848C90.56 6.28 91.496 6.872 92.28 7.624C93.08 8.376 93.704 9.272 94.152 10.312C94.616 11.352 94.848 12.464 94.848 13.648C94.848 14.816 94.616 15.912 94.152 16.936C93.704 17.96 93.08 18.848 92.28 19.6C91.496 20.336 90.56 20.92 89.472 21.352C88.384 21.784 87.216 22 85.968 22H79.512ZM85.944 8.296H82.992V18.904H85.944C86.68 18.904 87.368 18.768 88.008 18.496C88.664 18.224 89.232 17.856 89.712 17.392C90.192 16.912 90.568 16.352 90.84 15.712C91.112 15.072 91.248 14.384 91.248 13.648C91.248 12.896 91.112 12.192 90.84 11.536C90.568 10.88 90.192 10.312 89.712 9.832C89.232 9.352 88.664 8.976 88.008 8.704C87.368 8.432 86.68 8.296 85.944 8.296ZM98.6468 8.008C98.1348 8.008 97.6948 7.824 97.3268 7.456C96.9588 7.088 96.7748 6.648 96.7748 6.136C96.7748 5.624 96.9588 5.184 97.3268 4.816C97.6948 4.448 98.1348 4.264 98.6468 4.264C99.1588 4.264 99.5988 4.448 99.9668 4.816C100.335 5.184 100.519 5.624 100.519 6.136C100.519 6.648 100.335 7.088 99.9668 7.456C99.5988 7.824 99.1588 8.008 98.6468 8.008ZM100.303 9.496V22H97.0148V9.496H100.303ZM108.634 22.072C107.754 22.072 106.922 21.904 106.138 21.568C105.37 21.232 104.698 20.776 104.122 20.2C103.562 19.624 103.114 18.952 102.778 18.184C102.458 17.4 102.298 16.56 102.298 15.664C102.298 14.784 102.466 13.96 102.802 13.192C103.138 12.408 103.594 11.728 104.17 11.152C104.746 10.576 105.426 10.128 106.21 9.808C106.994 9.472 107.834 9.304 108.73 9.304C109.354 9.304 109.946 9.392 110.506 9.568C111.082 9.744 111.618 9.992 112.114 10.312V9.496H115.354V22C115.354 23.648 114.818 24.92 113.746 25.816C112.69 26.712 111.162 27.16 109.162 27.16C108.202 27.16 107.274 27.064 106.378 26.872C105.498 26.68 104.69 26.4 103.954 26.032L105.106 23.464C105.794 23.8 106.466 24.048 107.122 24.208C107.778 24.384 108.434 24.472 109.09 24.472C110.066 24.472 110.802 24.256 111.298 23.824C111.81 23.408 112.066 22.792 112.066 21.976V20.944C111.57 21.312 111.026 21.592 110.434 21.784C109.858 21.976 109.258 22.072 108.634 22.072ZM105.538 15.664C105.538 16.672 105.882 17.528 106.57 18.232C107.274 18.936 108.13 19.288 109.138 19.288C109.73 19.288 110.274 19.192 110.77 19C111.266 18.792 111.698 18.512 112.066 18.16V13.24C111.714 12.888 111.282 12.616 110.77 12.424C110.258 12.216 109.722 12.112 109.162 12.112C108.154 12.112 107.298 12.456 106.594 13.144C105.89 13.832 105.538 14.672 105.538 15.664ZM119.576 8.008C119.064 8.008 118.624 7.824 118.256 7.456C117.888 7.088 117.704 6.648 117.704 6.136C117.704 5.624 117.888 5.184 118.256 4.816C118.624 4.448 119.064 4.264 119.576 4.264C120.088 4.264 120.528 4.448 120.896 4.816C121.264 5.184 121.448 5.624 121.448 6.136C121.448 6.648 121.264 7.088 120.896 7.456C120.528 7.824 120.088 8.008 119.576 8.008ZM121.232 9.496V22H117.944V9.496H121.232ZM125.508 18.472V12.256H122.94V9.496H125.508V6.304L128.796 5.56V9.496H132.348V12.256H128.796V17.8C128.796 18.392 128.924 18.808 129.18 19.048C129.436 19.288 129.884 19.408 130.524 19.408C130.828 19.408 131.116 19.392 131.388 19.36C131.66 19.312 131.956 19.232 132.276 19.12V21.808C131.924 21.92 131.5 22.008 131.004 22.072C130.508 22.152 130.084 22.192 129.732 22.192C128.34 22.192 127.284 21.88 126.564 21.256C125.86 20.616 125.508 19.688 125.508 18.472ZM137.936 22.216C136.592 22.216 135.496 21.864 134.648 21.16C133.8 20.44 133.376 19.512 133.376 18.376C133.376 17.192 133.832 16.264 134.744 15.592C135.656 14.92 136.912 14.584 138.512 14.584C139.024 14.584 139.536 14.624 140.048 14.704C140.56 14.784 141.064 14.904 141.56 15.064V14.176C141.56 13.456 141.336 12.912 140.888 12.544C140.44 12.176 139.784 11.992 138.92 11.992C138.392 11.992 137.816 12.08 137.192 12.256C136.584 12.416 135.888 12.672 135.104 13.024L133.904 10.6C134.88 10.152 135.824 9.816 136.736 9.592C137.664 9.368 138.576 9.256 139.472 9.256C141.152 9.256 142.456 9.664 143.384 10.48C144.328 11.28 144.8 12.416 144.8 13.888V22H141.56V21.136C141.032 21.504 140.472 21.776 139.88 21.952C139.304 22.128 138.656 22.216 137.936 22.216ZM136.52 18.304C136.52 18.784 136.728 19.168 137.144 19.456C137.56 19.728 138.112 19.864 138.8 19.864C139.344 19.864 139.84 19.8 140.288 19.672C140.752 19.528 141.176 19.328 141.56 19.072V17.2C141.16 17.04 140.736 16.928 140.288 16.864C139.856 16.784 139.4 16.744 138.92 16.744C138.168 16.744 137.576 16.888 137.144 17.176C136.728 17.448 136.52 17.824 136.52 18.304ZM150.576 4.48V22H147.288V5.2L150.576 4.48ZM156.584 22L163.496 5.2H167.528L174.344 22H170.576L168.872 17.584H161.936L160.208 22H156.584ZM163.016 14.8H167.816L165.44 8.608L163.016 14.8ZM175.554 22V9.496H178.842V10.864C179.242 10.32 179.722 9.912 180.282 9.64C180.858 9.352 181.49 9.208 182.178 9.208C182.498 9.224 182.762 9.256 182.97 9.304C183.194 9.336 183.386 9.4 183.546 9.496V12.376C183.306 12.264 183.042 12.184 182.754 12.136C182.466 12.072 182.17 12.04 181.866 12.04C181.226 12.04 180.634 12.2 180.09 12.52C179.562 12.84 179.146 13.304 178.842 13.912V22H175.554ZM184.412 20.512L186.044 18.328C186.78 18.808 187.476 19.168 188.132 19.408C188.788 19.632 189.444 19.744 190.1 19.744C190.836 19.744 191.42 19.624 191.852 19.384C192.3 19.144 192.524 18.824 192.524 18.424C192.524 18.104 192.396 17.848 192.14 17.656C191.9 17.464 191.508 17.328 190.964 17.248L188.564 16.888C187.332 16.696 186.388 16.296 185.732 15.688C185.092 15.08 184.772 14.272 184.772 13.264C184.772 12.064 185.244 11.104 186.188 10.384C187.132 9.664 188.396 9.304 189.98 9.304C190.892 9.304 191.78 9.44 192.644 9.712C193.508 9.968 194.332 10.352 195.116 10.864L193.532 12.976C192.844 12.576 192.188 12.28 191.564 12.088C190.94 11.88 190.308 11.776 189.668 11.776C189.076 11.776 188.596 11.888 188.228 12.112C187.876 12.336 187.7 12.632 187.7 13C187.7 13.336 187.828 13.6 188.084 13.792C188.356 13.968 188.796 14.096 189.404 14.176L191.804 14.536C193.02 14.712 193.956 15.112 194.612 15.736C195.284 16.36 195.62 17.152 195.62 18.112C195.62 18.704 195.476 19.256 195.188 19.768C194.916 20.264 194.54 20.696 194.06 21.064C193.58 21.432 193.004 21.72 192.332 21.928C191.66 22.136 190.932 22.24 190.148 22.24C189.012 22.24 187.948 22.096 186.956 21.808C185.964 21.504 185.116 21.072 184.412 20.512ZM198.889 8.008C198.377 8.008 197.937 7.824 197.569 7.456C197.201 7.088 197.017 6.648 197.017 6.136C197.017 5.624 197.201 5.184 197.569 4.816C197.937 4.448 198.377 4.264 198.889 4.264C199.401 4.264 199.841 4.448 200.209 4.816C200.577 5.184 200.761 5.624 200.761 6.136C200.761 6.648 200.577 7.088 200.209 7.456C199.841 7.824 199.401 8.008 198.889 8.008ZM200.545 9.496V22H197.257V9.496H200.545ZM203.116 27.016V9.496H206.356V10.528C206.852 10.128 207.404 9.832 208.012 9.64C208.62 9.432 209.252 9.328 209.908 9.328C210.788 9.328 211.612 9.496 212.38 9.832C213.164 10.168 213.844 10.624 214.42 11.2C214.996 11.776 215.444 12.456 215.764 13.24C216.1 14.024 216.268 14.864 216.268 15.76C216.268 16.656 216.1 17.496 215.764 18.28C215.428 19.064 214.972 19.744 214.396 20.32C213.82 20.896 213.132 21.352 212.332 21.688C211.548 22.008 210.708 22.168 209.812 22.168C209.204 22.168 208.604 22.088 208.012 21.928C207.436 21.752 206.9 21.504 206.404 21.184V27.016H203.116ZM209.38 12.136C208.788 12.136 208.236 12.24 207.724 12.448C207.212 12.64 206.772 12.928 206.404 13.312V18.232C206.756 18.584 207.188 18.864 207.7 19.072C208.228 19.28 208.788 19.384 209.38 19.384C210.404 19.384 211.268 19.04 211.972 18.352C212.676 17.648 213.028 16.784 213.028 15.76C213.028 14.736 212.668 13.88 211.948 13.192C211.244 12.488 210.388 12.136 209.38 12.136Z" fill="white"/>
<path d="M79.278 48V35.4H81.168V41.268L87.27 35.4H89.646L83.148 41.484L89.862 48H87.27L81.168 42.006V48H79.278ZM89.5816 43.41C89.5816 42.75 89.7016 42.132 89.9416 41.556C90.1936 40.968 90.5356 40.464 90.9676 40.044C91.3996 39.612 91.9036 39.276 92.4796 39.036C93.0676 38.784 93.6916 38.658 94.3516 38.658C95.0116 38.658 95.6296 38.784 96.2056 39.036C96.7936 39.276 97.2976 39.612 97.7176 40.044C98.1496 40.464 98.4856 40.968 98.7256 41.556C98.9776 42.132 99.1036 42.75 99.1036 43.41C99.1036 44.082 98.9776 44.712 98.7256 45.3C98.4856 45.876 98.1496 46.38 97.7176 46.812C97.2976 47.232 96.7936 47.568 96.2056 47.82C95.6296 48.06 95.0116 48.18 94.3516 48.18C93.6916 48.18 93.0676 48.06 92.4796 47.82C91.9036 47.568 91.3996 47.232 90.9676 46.812C90.5356 46.38 90.1936 45.876 89.9416 45.3C89.7016 44.712 89.5816 44.082 89.5816 43.41ZM94.3516 46.596C95.1796 46.596 95.8816 46.29 96.4576 45.678C97.0456 45.054 97.3396 44.298 97.3396 43.41C97.3396 42.522 97.0456 41.772 96.4576 41.16C95.8816 40.548 95.1796 40.242 94.3516 40.242C93.5236 40.242 92.8156 40.548 92.2276 41.16C91.6396 41.772 91.3456 42.522 91.3456 43.41C91.3456 44.298 91.6336 45.054 92.2096 45.678C92.7976 46.29 93.5116 46.596 94.3516 46.596ZM101.432 45.732V40.35H99.4876V38.838H101.432V36.498L103.214 36.066V38.838H105.914V40.35H103.214V45.318C103.214 45.786 103.316 46.116 103.52 46.308C103.736 46.5 104.084 46.596 104.564 46.596C104.816 46.596 105.038 46.584 105.23 46.56C105.434 46.524 105.65 46.464 105.878 46.38V47.892C105.638 47.976 105.356 48.042 105.032 48.09C104.72 48.138 104.432 48.162 104.168 48.162C103.28 48.162 102.602 47.958 102.134 47.55C101.666 47.13 101.432 46.524 101.432 45.732ZM110.138 48.162C109.142 48.162 108.332 47.904 107.708 47.388C107.084 46.872 106.772 46.2 106.772 45.372C106.772 44.508 107.102 43.83 107.762 43.338C108.422 42.834 109.328 42.582 110.48 42.582C110.924 42.582 111.356 42.63 111.776 42.726C112.196 42.81 112.598 42.93 112.982 43.086V42.114C112.982 41.466 112.79 40.98 112.406 40.656C112.022 40.332 111.47 40.17 110.75 40.17C110.33 40.17 109.892 40.236 109.436 40.368C108.98 40.488 108.47 40.68 107.906 40.944L107.24 39.594C107.924 39.27 108.572 39.036 109.184 38.892C109.796 38.736 110.402 38.658 111.002 38.658C112.19 38.658 113.108 38.946 113.756 39.522C114.416 40.086 114.746 40.89 114.746 41.934V48H112.982V47.208C112.574 47.532 112.136 47.772 111.668 47.928C111.2 48.084 110.69 48.162 110.138 48.162ZM108.5 45.336C108.5 45.78 108.686 46.14 109.058 46.416C109.442 46.692 109.94 46.83 110.552 46.83C111.032 46.83 111.476 46.758 111.884 46.614C112.292 46.47 112.658 46.254 112.982 45.966V44.382C112.634 44.19 112.268 44.052 111.884 43.968C111.5 43.872 111.08 43.824 110.624 43.824C109.976 43.824 109.46 43.962 109.076 44.238C108.692 44.514 108.5 44.88 108.5 45.336ZM127.26 47.1L122.562 37.74V48H120.798V35.4H123.318L127.278 43.446L131.22 35.4H133.74V48H131.958V37.722L127.26 47.1ZM138.808 48.162C137.812 48.162 137.002 47.904 136.378 47.388C135.754 46.872 135.442 46.2 135.442 45.372C135.442 44.508 135.772 43.83 136.432 43.338C137.092 42.834 137.998 42.582 139.15 42.582C139.594 42.582 140.026 42.63 140.446 42.726C140.866 42.81 141.268 42.93 141.652 43.086V42.114C141.652 41.466 141.46 40.98 141.076 40.656C140.692 40.332 140.14 40.17 139.42 40.17C139 40.17 138.562 40.236 138.106 40.368C137.65 40.488 137.14 40.68 136.576 40.944L135.91 39.594C136.594 39.27 137.242 39.036 137.854 38.892C138.466 38.736 139.072 38.658 139.672 38.658C140.86 38.658 141.778 38.946 142.426 39.522C143.086 40.086 143.416 40.89 143.416 41.934V48H141.652V47.208C141.244 47.532 140.806 47.772 140.338 47.928C139.87 48.084 139.36 48.162 138.808 48.162ZM137.17 45.336C137.17 45.78 137.356 46.14 137.728 46.416C138.112 46.692 138.61 46.83 139.222 46.83C139.702 46.83 140.146 46.758 140.554 46.614C140.962 46.47 141.328 46.254 141.652 45.966V44.382C141.304 44.19 140.938 44.052 140.554 43.968C140.17 43.872 139.75 43.824 139.294 43.824C138.646 43.824 138.13 43.962 137.746 44.238C137.362 44.514 137.17 44.88 137.17 45.336ZM145.49 48V35.4L147.29 35.004V42.87L151.736 38.838H153.842L149.126 43.14L154.094 48H151.718L147.29 43.68V48H145.49ZM157.476 48.162C156.48 48.162 155.67 47.904 155.046 47.388C154.422 46.872 154.11 46.2 154.11 45.372C154.11 44.508 154.44 43.83 155.1 43.338C155.76 42.834 156.666 42.582 157.818 42.582C158.262 42.582 158.694 42.63 159.114 42.726C159.534 42.81 159.936 42.93 160.32 43.086V42.114C160.32 41.466 160.128 40.98 159.744 40.656C159.36 40.332 158.808 40.17 158.088 40.17C157.668 40.17 157.23 40.236 156.774 40.368C156.318 40.488 155.808 40.68 155.244 40.944L154.578 39.594C155.262 39.27 155.91 39.036 156.522 38.892C157.134 38.736 157.74 38.658 158.34 38.658C159.528 38.658 160.446 38.946 161.094 39.522C161.754 40.086 162.084 40.89 162.084 41.934V48H160.32V47.208C159.912 47.532 159.474 47.772 159.006 47.928C158.538 48.084 158.028 48.162 157.476 48.162ZM155.838 45.336C155.838 45.78 156.024 46.14 156.396 46.416C156.78 46.692 157.278 46.83 157.89 46.83C158.37 46.83 158.814 46.758 159.222 46.614C159.63 46.47 159.996 46.254 160.32 45.966V44.382C159.972 44.19 159.606 44.052 159.222 43.968C158.838 43.872 158.418 43.824 157.962 43.824C157.314 43.824 156.798 43.962 156.414 44.238C156.03 44.514 155.838 44.88 155.838 45.336ZM163.294 46.812L164.266 45.624C164.746 45.996 165.232 46.284 165.724 46.488C166.228 46.68 166.738 46.776 167.254 46.776C167.902 46.776 168.43 46.65 168.838 46.398C169.246 46.146 169.45 45.816 169.45 45.408C169.45 45.084 169.33 44.826 169.09 44.634C168.85 44.442 168.478 44.31 167.974 44.238L166.318 44.004C165.418 43.872 164.734 43.596 164.266 43.176C163.81 42.744 163.582 42.174 163.582 41.466C163.582 40.638 163.912 39.972 164.572 39.468C165.232 38.952 166.096 38.694 167.164 38.694C167.836 38.694 168.472 38.79 169.072 38.982C169.684 39.174 170.278 39.468 170.854 39.864L169.936 41.052C169.432 40.716 168.94 40.476 168.46 40.332C167.992 40.176 167.518 40.098 167.038 40.098C166.486 40.098 166.042 40.212 165.706 40.44C165.37 40.668 165.202 40.968 165.202 41.34C165.202 41.676 165.316 41.934 165.544 42.114C165.784 42.282 166.174 42.408 166.714 42.492L168.37 42.726C169.27 42.858 169.954 43.14 170.422 43.572C170.902 44.004 171.142 44.574 171.142 45.282C171.142 45.69 171.04 46.074 170.836 46.434C170.644 46.782 170.374 47.082 170.026 47.334C169.69 47.586 169.288 47.79 168.82 47.946C168.352 48.09 167.848 48.162 167.308 48.162C166.516 48.162 165.772 48.048 165.076 47.82C164.392 47.592 163.798 47.256 163.294 46.812ZM171.766 46.812L172.738 45.624C173.218 45.996 173.704 46.284 174.196 46.488C174.7 46.68 175.21 46.776 175.726 46.776C176.374 46.776 176.902 46.65 177.31 46.398C177.718 46.146 177.922 45.816 177.922 45.408C177.922 45.084 177.802 44.826 177.562 44.634C177.322 44.442 176.95 44.31 176.446 44.238L174.79 44.004C173.89 43.872 173.206 43.596 172.738 43.176C172.282 42.744 172.054 42.174 172.054 41.466C172.054 40.638 172.384 39.972 173.044 39.468C173.704 38.952 174.568 38.694 175.636 38.694C176.308 38.694 176.944 38.79 177.544 38.982C178.156 39.174 178.75 39.468 179.326 39.864L178.408 41.052C177.904 40.716 177.412 40.476 176.932 40.332C176.464 40.176 175.99 40.098 175.51 40.098C174.958 40.098 174.514 40.212 174.178 40.44C173.842 40.668 173.674 40.968 173.674 41.34C173.674 41.676 173.788 41.934 174.016 42.114C174.256 42.282 174.646 42.408 175.186 42.492L176.842 42.726C177.742 42.858 178.426 43.14 178.894 43.572C179.374 44.004 179.614 44.574 179.614 45.282C179.614 45.69 179.512 46.074 179.308 46.434C179.116 46.782 178.846 47.082 178.498 47.334C178.162 47.586 177.76 47.79 177.292 47.946C176.824 48.09 176.32 48.162 175.78 48.162C174.988 48.162 174.244 48.048 173.548 47.82C172.864 47.592 172.27 47.256 171.766 46.812ZM183.983 48.162C182.987 48.162 182.177 47.904 181.553 47.388C180.929 46.872 180.617 46.2 180.617 45.372C180.617 44.508 180.947 43.83 181.607 43.338C182.267 42.834 183.173 42.582 184.325 42.582C184.769 42.582 185.201 42.63 185.621 42.726C186.041 42.81 186.443 42.93 186.827 43.086V42.114C186.827 41.466 186.635 40.98 186.251 40.656C185.867 40.332 185.315 40.17 184.595 40.17C184.175 40.17 183.737 40.236 183.281 40.368C182.825 40.488 182.315 40.68 181.751 40.944L181.085 39.594C181.769 39.27 182.417 39.036 183.029 38.892C183.641 38.736 184.247 38.658 184.847 38.658C186.035 38.658 186.953 38.946 187.601 39.522C188.261 40.086 188.591 40.89 188.591 41.934V48H186.827V47.208C186.419 47.532 185.981 47.772 185.513 47.928C185.045 48.084 184.535 48.162 183.983 48.162ZM182.345 45.336C182.345 45.78 182.531 46.14 182.903 46.416C183.287 46.692 183.785 46.83 184.397 46.83C184.877 46.83 185.321 46.758 185.729 46.614C186.137 46.47 186.503 46.254 186.827 45.966V44.382C186.479 44.19 186.113 44.052 185.729 43.968C185.345 43.872 184.925 43.824 184.469 43.824C183.821 43.824 183.305 43.962 182.921 44.238C182.537 44.514 182.345 44.88 182.345 45.336ZM190.666 48V38.838H192.466V40.008C192.742 39.564 193.096 39.228 193.528 39C193.96 38.76 194.446 38.64 194.986 38.64C195.178 38.64 195.346 38.652 195.49 38.676C195.634 38.7 195.772 38.736 195.904 38.784V40.404C195.736 40.344 195.562 40.296 195.382 40.26C195.202 40.224 195.022 40.206 194.842 40.206C194.314 40.206 193.84 40.35 193.42 40.638C193.012 40.914 192.694 41.328 192.466 41.88V48H190.666Z" fill="white"/>
<path fill-rule="evenodd" clip-rule="evenodd" d="M1.53813 20.0479L11.7638 0L11.2511 1.00168C11.2511 1.00168 11.8255 0 13.2402 0H23.4232H27.8762H32.3244H42.5074C43.9221 0 44.4965 1.00168 44.4965 1.00168L43.9885 0L54.2142 20.0479C54.8599 21.3391 55.7524 23.5799 55.7524 25.9915V46.0394C55.7049 46.685 55.3773 48 53.4404 48H27.8762H2.31194C0.379784 48 0.0474731 46.6803 0 46.0394V25.9915C0 23.5751 0.892493 21.3344 1.53813 20.0479ZM22.4263 35.2345H33.3213V41.1259H22.4263V35.2345ZM27.8714 3.89754H14.2039H14.1849C13.8147 3.90703 13.6248 4.19662 13.601 4.2346L5.92938 20.9356C5.51637 21.9136 4.32954 24.5626 6.21422 24.5626H16.8339H16.8387H16.8434H16.8482H16.8862H16.9004H16.9146C17.1615 24.5673 17.9068 24.629 18.4385 25.137L18.467 25.1655L20.1191 26.8175L20.3612 27.0596C20.6555 27.2828 21.2727 27.5818 22.4453 27.5818H27.8714H33.2976C34.4702 27.5818 35.0873 27.2828 35.3817 27.0596L35.6238 26.8175L37.2758 25.1655L37.3043 25.137C37.836 24.629 38.5813 24.5721 38.8282 24.5626H38.8425H38.8567H38.8947H38.8994H38.9042H38.9089H49.5286C51.4086 24.5626 50.2217 21.9136 49.8135 20.9356L42.1418 4.2346C42.1181 4.19662 41.9282 3.91178 41.5579 3.89754H41.5389H27.8714ZM41.9709 3.89754H41.5579H41.9709ZM13.7767 3.89754H14.1897H13.7767Z" fill="white"/>
<path fill-rule="evenodd" clip-rule="evenodd" d="M11.6278 15.5282H44.1231V20.3087H35.3026L32.9337 22.6728H22.8172L20.4483 20.3087H11.6278V15.5282Z" fill="white"/>
<path d="M41.3033 8.35476H14.4478V11.977H41.3033V8.35476Z" fill="white"/>
<path fill-rule="evenodd" clip-rule="evenodd" d="M18.2355 9.2097H18.8289C18.2924 9.22869 18.2402 9.77463 18.2355 9.82685V9.2097Z" fill="white"/>
</svg>
