<svg width="261" height="55" viewBox="0 0 261 55" fill="none" xmlns="http://www.w3.org/2000/svg">
<path d="M73.512 22V5.2H79.968C81.216 5.2 82.384 5.416 83.472 5.848C84.56 6.28 85.496 6.872 86.28 7.624C87.08 8.376 87.704 9.272 88.152 10.312C88.616 11.352 88.848 12.464 88.848 13.648C88.848 14.816 88.616 15.912 88.152 16.936C87.704 17.96 87.08 18.848 86.28 19.6C85.496 20.336 84.56 20.92 83.472 21.352C82.384 21.784 81.216 22 79.968 22H73.512ZM79.944 8.296H76.992V18.904H79.944C80.68 18.904 81.368 18.768 82.008 18.496C82.664 18.224 83.232 17.856 83.712 17.392C84.192 16.912 84.568 16.352 84.84 15.712C85.112 15.072 85.248 14.384 85.248 13.648C85.248 12.896 85.112 12.192 84.84 11.536C84.568 10.88 84.192 10.312 83.712 9.832C83.232 9.352 82.664 8.976 82.008 8.704C81.368 8.432 80.68 8.296 79.944 8.296ZM92.6468 8.008C92.1348 8.008 91.6948 7.824 91.3268 7.456C90.9588 7.088 90.7748 6.648 90.7748 6.136C90.7748 5.624 90.9588 5.184 91.3268 4.816C91.6948 4.448 92.1348 4.264 92.6468 4.264C93.1588 4.264 93.5988 4.448 93.9668 4.816C94.3348 5.184 94.5188 5.624 94.5188 6.136C94.5188 6.648 94.3348 7.088 93.9668 7.456C93.5988 7.824 93.1588 8.008 92.6468 8.008ZM94.3028 9.496V22H91.0148V9.496H94.3028ZM102.634 22.072C101.754 22.072 100.922 21.904 100.138 21.568C99.3701 21.232 98.6981 20.776 98.1221 20.2C97.5621 19.624 97.1141 18.952 96.7781 18.184C96.4581 17.4 96.2981 16.56 96.2981 15.664C96.2981 14.784 96.4661 13.96 96.8021 13.192C97.1381 12.408 97.5941 11.728 98.1701 11.152C98.7461 10.576 99.4261 10.128 100.21 9.808C100.994 9.472 101.834 9.304 102.73 9.304C103.354 9.304 103.946 9.392 104.506 9.568C105.082 9.744 105.618 9.992 106.114 10.312V9.496H109.354V22C109.354 23.648 108.818 24.92 107.746 25.816C106.69 26.712 105.162 27.16 103.162 27.16C102.202 27.16 101.274 27.064 100.378 26.872C99.4981 26.68 98.6901 26.4 97.9541 26.032L99.1061 23.464C99.7941 23.8 100.466 24.048 101.122 24.208C101.778 24.384 102.434 24.472 103.09 24.472C104.066 24.472 104.802 24.256 105.298 23.824C105.81 23.408 106.066 22.792 106.066 21.976V20.944C105.57 21.312 105.026 21.592 104.434 21.784C103.858 21.976 103.258 22.072 102.634 22.072ZM99.5381 15.664C99.5381 16.672 99.8821 17.528 100.57 18.232C101.274 18.936 102.13 19.288 103.138 19.288C103.73 19.288 104.274 19.192 104.77 19C105.266 18.792 105.698 18.512 106.066 18.16V13.24C105.714 12.888 105.282 12.616 104.77 12.424C104.258 12.216 103.722 12.112 103.162 12.112C102.154 12.112 101.298 12.456 100.594 13.144C99.8901 13.832 99.5381 14.672 99.5381 15.664ZM113.576 8.008C113.064 8.008 112.624 7.824 112.256 7.456C111.888 7.088 111.704 6.648 111.704 6.136C111.704 5.624 111.888 5.184 112.256 4.816C112.624 4.448 113.064 4.264 113.576 4.264C114.088 4.264 114.528 4.448 114.896 4.816C115.264 5.184 115.448 5.624 115.448 6.136C115.448 6.648 115.264 7.088 114.896 7.456C114.528 7.824 114.088 8.008 113.576 8.008ZM115.232 9.496V22H111.944V9.496H115.232ZM119.508 18.472V12.256H116.94V9.496H119.508V6.304L122.796 5.56V9.496H126.348V12.256H122.796V17.8C122.796 18.392 122.924 18.808 123.18 19.048C123.436 19.288 123.884 19.408 124.524 19.408C124.828 19.408 125.116 19.392 125.388 19.36C125.66 19.312 125.956 19.232 126.276 19.12V21.808C125.924 21.92 125.5 22.008 125.004 22.072C124.508 22.152 124.084 22.192 123.732 22.192C122.34 22.192 121.284 21.88 120.564 21.256C119.86 20.616 119.508 19.688 119.508 18.472ZM131.936 22.216C130.592 22.216 129.496 21.864 128.648 21.16C127.8 20.44 127.376 19.512 127.376 18.376C127.376 17.192 127.832 16.264 128.744 15.592C129.656 14.92 130.912 14.584 132.512 14.584C133.024 14.584 133.536 14.624 134.048 14.704C134.56 14.784 135.064 14.904 135.56 15.064V14.176C135.56 13.456 135.336 12.912 134.888 12.544C134.44 12.176 133.784 11.992 132.92 11.992C132.392 11.992 131.816 12.08 131.192 12.256C130.584 12.416 129.888 12.672 129.104 13.024L127.904 10.6C128.88 10.152 129.824 9.816 130.736 9.592C131.664 9.368 132.576 9.256 133.472 9.256C135.152 9.256 136.456 9.664 137.384 10.48C138.328 11.28 138.8 12.416 138.8 13.888V22H135.56V21.136C135.032 21.504 134.472 21.776 133.88 21.952C133.304 22.128 132.656 22.216 131.936 22.216ZM130.52 18.304C130.52 18.784 130.728 19.168 131.144 19.456C131.56 19.728 132.112 19.864 132.8 19.864C133.344 19.864 133.84 19.8 134.288 19.672C134.752 19.528 135.176 19.328 135.56 19.072V17.2C135.16 17.04 134.736 16.928 134.288 16.864C133.856 16.784 133.4 16.744 132.92 16.744C132.168 16.744 131.576 16.888 131.144 17.176C130.728 17.448 130.52 17.824 130.52 18.304ZM144.576 4.48V22H141.288V5.2L144.576 4.48ZM150.584 22L157.496 5.2H161.528L168.344 22H164.576L162.872 17.584H155.936L154.208 22H150.584ZM157.016 14.8H161.816L159.44 8.608L157.016 14.8ZM169.554 22V9.496H172.842V10.864C173.242 10.32 173.722 9.912 174.282 9.64C174.858 9.352 175.49 9.208 176.178 9.208C176.498 9.224 176.762 9.256 176.97 9.304C177.194 9.336 177.386 9.4 177.546 9.496V12.376C177.306 12.264 177.042 12.184 176.754 12.136C176.466 12.072 176.17 12.04 175.866 12.04C175.226 12.04 174.634 12.2 174.09 12.52C173.562 12.84 173.146 13.304 172.842 13.912V22H169.554ZM178.412 20.512L180.044 18.328C180.78 18.808 181.476 19.168 182.132 19.408C182.788 19.632 183.444 19.744 184.1 19.744C184.836 19.744 185.42 19.624 185.852 19.384C186.3 19.144 186.524 18.824 186.524 18.424C186.524 18.104 186.396 17.848 186.14 17.656C185.9 17.464 185.508 17.328 184.964 17.248L182.564 16.888C181.332 16.696 180.388 16.296 179.732 15.688C179.092 15.08 178.772 14.272 178.772 13.264C178.772 12.064 179.244 11.104 180.188 10.384C181.132 9.664 182.396 9.304 183.98 9.304C184.892 9.304 185.78 9.44 186.644 9.712C187.508 9.968 188.332 10.352 189.116 10.864L187.532 12.976C186.844 12.576 186.188 12.28 185.564 12.088C184.94 11.88 184.308 11.776 183.668 11.776C183.076 11.776 182.596 11.888 182.228 12.112C181.876 12.336 181.7 12.632 181.7 13C181.7 13.336 181.828 13.6 182.084 13.792C182.356 13.968 182.796 14.096 183.404 14.176L185.804 14.536C187.02 14.712 187.956 15.112 188.612 15.736C189.284 16.36 189.62 17.152 189.62 18.112C189.62 18.704 189.476 19.256 189.188 19.768C188.916 20.264 188.54 20.696 188.06 21.064C187.58 21.432 187.004 21.72 186.332 21.928C185.66 22.136 184.932 22.24 184.148 22.24C183.012 22.24 181.948 22.096 180.956 21.808C179.964 21.504 179.116 21.072 178.412 20.512ZM192.889 8.008C192.377 8.008 191.937 7.824 191.569 7.456C191.201 7.088 191.017 6.648 191.017 6.136C191.017 5.624 191.201 5.184 191.569 4.816C191.937 4.448 192.377 4.264 192.889 4.264C193.401 4.264 193.841 4.448 194.209 4.816C194.577 5.184 194.761 5.624 194.761 6.136C194.761 6.648 194.577 7.088 194.209 7.456C193.841 7.824 193.401 8.008 192.889 8.008ZM194.545 9.496V22H191.257V9.496H194.545ZM197.116 27.016V9.496H200.356V10.528C200.852 10.128 201.404 9.832 202.012 9.64C202.62 9.432 203.252 9.328 203.908 9.328C204.788 9.328 205.612 9.496 206.38 9.832C207.164 10.168 207.844 10.624 208.42 11.2C208.996 11.776 209.444 12.456 209.764 13.24C210.1 14.024 210.268 14.864 210.268 15.76C210.268 16.656 210.1 17.496 209.764 18.28C209.428 19.064 208.972 19.744 208.396 20.32C207.82 20.896 207.132 21.352 206.332 21.688C205.548 22.008 204.708 22.168 203.812 22.168C203.204 22.168 202.604 22.088 202.012 21.928C201.436 21.752 200.9 21.504 200.404 21.184V27.016H197.116ZM203.38 12.136C202.788 12.136 202.236 12.24 201.724 12.448C201.212 12.64 200.772 12.928 200.404 13.312V18.232C200.756 18.584 201.188 18.864 201.7 19.072C202.228 19.28 202.788 19.384 203.38 19.384C204.404 19.384 205.268 19.04 205.972 18.352C206.676 17.648 207.028 16.784 207.028 15.76C207.028 14.736 206.668 13.88 205.948 13.192C205.244 12.488 204.388 12.136 203.38 12.136Z" fill="white"/>
<path d="M73.278 48V35.4H75.168V41.268L81.27 35.4H83.646L77.148 41.484L83.862 48H81.27L75.168 42.006V48H73.278ZM87.1748 48.162C86.1788 48.162 85.3688 47.904 84.7448 47.388C84.1208 46.872 83.8088 46.2 83.8088 45.372C83.8088 44.508 84.1388 43.83 84.7988 43.338C85.4588 42.834 86.3648 42.582 87.5168 42.582C87.9608 42.582 88.3928 42.63 88.8128 42.726C89.2328 42.81 89.6348 42.93 90.0188 43.086V42.114C90.0188 41.466 89.8268 40.98 89.4428 40.656C89.0588 40.332 88.5068 40.17 87.7868 40.17C87.3668 40.17 86.9288 40.236 86.4728 40.368C86.0168 40.488 85.5068 40.68 84.9428 40.944L84.2768 39.594C84.9608 39.27 85.6088 39.036 86.2208 38.892C86.8328 38.736 87.4388 38.658 88.0388 38.658C89.2268 38.658 90.1448 38.946 90.7928 39.522C91.4528 40.086 91.7828 40.89 91.7828 41.934V48H90.0188V47.208C89.6108 47.532 89.1728 47.772 88.7048 47.928C88.2368 48.084 87.7268 48.162 87.1748 48.162ZM85.5368 45.336C85.5368 45.78 85.7228 46.14 86.0948 46.416C86.4788 46.692 86.9768 46.83 87.5888 46.83C88.0688 46.83 88.5128 46.758 88.9208 46.614C89.3288 46.47 89.6948 46.254 90.0188 45.966V44.382C89.6708 44.19 89.3048 44.052 88.9208 43.968C88.5368 43.872 88.1168 43.824 87.6608 43.824C87.0128 43.824 86.4968 43.962 86.1128 44.238C85.7288 44.514 85.5368 44.88 85.5368 45.336ZM103.073 43.41C103.073 44.07 102.953 44.694 102.713 45.282C102.473 45.858 102.143 46.356 101.723 46.776C101.315 47.196 100.823 47.532 100.247 47.784C99.6709 48.024 99.0589 48.144 98.4109 48.144C97.8949 48.144 97.4029 48.066 96.9349 47.91C96.4669 47.754 96.0349 47.526 95.6389 47.226V48H93.8569V35.4L95.6569 35.004V39.702C96.0289 39.378 96.4549 39.132 96.9349 38.964C97.4149 38.784 97.9189 38.694 98.4469 38.694C99.0949 38.694 99.7009 38.82 100.265 39.072C100.829 39.312 101.315 39.642 101.723 40.062C102.143 40.482 102.473 40.98 102.713 41.556C102.953 42.132 103.073 42.75 103.073 43.41ZM98.2129 40.26C97.6969 40.26 97.2169 40.356 96.7729 40.548C96.3289 40.74 95.9569 41.01 95.6569 41.358V45.498C95.9449 45.834 96.3109 46.098 96.7549 46.29C97.2109 46.482 97.6969 46.578 98.2129 46.578C99.0889 46.578 99.8209 46.278 100.409 45.678C101.009 45.078 101.309 44.328 101.309 43.428C101.309 42.528 101.009 41.778 100.409 41.178C99.8089 40.566 99.0769 40.26 98.2129 40.26ZM106.555 38.838V44.274C106.555 44.994 106.759 45.564 107.167 45.984C107.587 46.404 108.139 46.614 108.823 46.614C109.303 46.614 109.735 46.512 110.119 46.308C110.503 46.092 110.821 45.792 111.073 45.408V38.838H112.873V48H111.073V47.082C110.713 47.442 110.299 47.718 109.831 47.91C109.375 48.09 108.871 48.18 108.319 48.18C107.275 48.18 106.417 47.844 105.745 47.172C105.085 46.5 104.755 45.636 104.755 44.58V38.838H106.555ZM115.003 51.726V38.838H116.785V39.72C117.157 39.384 117.583 39.132 118.063 38.964C118.543 38.784 119.053 38.694 119.593 38.694C120.241 38.694 120.847 38.82 121.411 39.072C121.975 39.312 122.461 39.642 122.869 40.062C123.289 40.482 123.619 40.98 123.859 41.556C124.099 42.132 124.219 42.75 124.219 43.41C124.219 44.07 124.099 44.694 123.859 45.282C123.619 45.858 123.289 46.356 122.869 46.776C122.461 47.196 121.969 47.532 121.393 47.784C120.817 48.024 120.205 48.144 119.557 48.144C119.053 48.144 118.561 48.066 118.081 47.91C117.613 47.754 117.187 47.532 116.803 47.244V51.726H115.003ZM119.359 40.26C118.843 40.26 118.363 40.356 117.919 40.548C117.475 40.74 117.103 41.01 116.803 41.358V45.498C117.091 45.834 117.457 46.098 117.901 46.29C118.357 46.482 118.843 46.578 119.359 46.578C120.235 46.578 120.967 46.278 121.555 45.678C122.155 45.078 122.455 44.328 122.455 43.428C122.455 42.528 122.155 41.778 121.555 41.178C120.955 40.566 120.223 40.26 119.359 40.26ZM128.923 48.162C127.927 48.162 127.117 47.904 126.493 47.388C125.869 46.872 125.557 46.2 125.557 45.372C125.557 44.508 125.887 43.83 126.547 43.338C127.207 42.834 128.113 42.582 129.265 42.582C129.709 42.582 130.141 42.63 130.561 42.726C130.981 42.81 131.383 42.93 131.767 43.086V42.114C131.767 41.466 131.575 40.98 131.191 40.656C130.807 40.332 130.255 40.17 129.535 40.17C129.115 40.17 128.677 40.236 128.221 40.368C127.765 40.488 127.255 40.68 126.691 40.944L126.025 39.594C126.709 39.27 127.357 39.036 127.969 38.892C128.581 38.736 129.187 38.658 129.787 38.658C130.975 38.658 131.893 38.946 132.541 39.522C133.201 40.086 133.531 40.89 133.531 41.934V48H131.767V47.208C131.359 47.532 130.921 47.772 130.453 47.928C129.985 48.084 129.475 48.162 128.923 48.162ZM127.285 45.336C127.285 45.78 127.471 46.14 127.843 46.416C128.227 46.692 128.725 46.83 129.337 46.83C129.817 46.83 130.261 46.758 130.669 46.614C131.077 46.47 131.443 46.254 131.767 45.966V44.382C131.419 44.19 131.053 44.052 130.669 43.968C130.285 43.872 129.865 43.824 129.409 43.824C128.761 43.824 128.245 43.962 127.861 44.238C127.477 44.514 127.285 44.88 127.285 45.336ZM136.441 45.732V40.35H134.497V38.838H136.441V36.498L138.223 36.066V38.838H140.923V40.35H138.223V45.318C138.223 45.786 138.325 46.116 138.529 46.308C138.745 46.5 139.093 46.596 139.573 46.596C139.825 46.596 140.047 46.584 140.239 46.56C140.443 46.524 140.659 46.464 140.887 46.38V47.892C140.647 47.976 140.365 48.042 140.041 48.09C139.729 48.138 139.441 48.162 139.177 48.162C138.289 48.162 137.611 47.958 137.143 47.55C136.675 47.13 136.441 46.524 136.441 45.732ZM149.994 46.956C149.466 47.364 148.914 47.67 148.338 47.874C147.762 48.066 147.132 48.162 146.448 48.162C145.776 48.162 145.146 48.042 144.558 47.802C143.97 47.55 143.46 47.214 143.028 46.794C142.596 46.374 142.254 45.876 142.002 45.3C141.762 44.712 141.642 44.082 141.642 43.41C141.642 42.75 141.762 42.132 142.002 41.556C142.242 40.98 142.566 40.482 142.974 40.062C143.382 39.642 143.868 39.312 144.432 39.072C144.996 38.82 145.596 38.694 146.232 38.694C146.856 38.694 147.438 38.82 147.978 39.072C148.53 39.312 148.998 39.648 149.382 40.08C149.778 40.5 150.09 41.004 150.318 41.592C150.546 42.18 150.66 42.81 150.66 43.482V44.004H143.424C143.544 44.76 143.892 45.39 144.468 45.894C145.044 46.386 145.728 46.632 146.52 46.632C146.964 46.632 147.39 46.56 147.798 46.416C148.206 46.272 148.554 46.074 148.842 45.822L149.994 46.956ZM146.196 40.206C145.512 40.206 144.912 40.434 144.396 40.89C143.892 41.346 143.574 41.934 143.442 42.654H148.878C148.746 41.958 148.428 41.376 147.924 40.908C147.432 40.44 146.856 40.206 146.196 40.206ZM152.375 48V38.838H154.175V39.756C154.535 39.396 154.943 39.126 155.399 38.946C155.867 38.754 156.377 38.658 156.929 38.658C157.973 38.658 158.831 38.994 159.503 39.666C160.175 40.326 160.511 41.184 160.511 42.24V48H158.711V42.546C158.711 41.826 158.501 41.262 158.081 40.854C157.673 40.434 157.127 40.224 156.443 40.224C155.963 40.224 155.525 40.326 155.129 40.53C154.745 40.734 154.427 41.028 154.175 41.412V48H152.375ZM165.431 45.912L166.583 44.58C167.267 45.24 167.963 45.738 168.671 46.074C169.391 46.398 170.141 46.56 170.921 46.56C171.821 46.56 172.553 46.362 173.117 45.966C173.693 45.57 173.981 45.066 173.981 44.454C173.981 43.902 173.783 43.476 173.387 43.176C172.991 42.864 172.337 42.63 171.425 42.474L169.319 42.132C168.167 41.94 167.303 41.574 166.727 41.034C166.163 40.482 165.881 39.756 165.881 38.856C165.881 37.764 166.307 36.888 167.159 36.228C168.011 35.568 169.133 35.238 170.525 35.238C171.425 35.238 172.319 35.388 173.207 35.688C174.095 35.976 174.893 36.396 175.601 36.948L174.557 38.388C173.873 37.872 173.189 37.488 172.505 37.236C171.821 36.972 171.131 36.84 170.435 36.84C169.619 36.84 168.959 37.014 168.455 37.362C167.951 37.71 167.699 38.16 167.699 38.712C167.699 39.228 167.873 39.624 168.221 39.9C168.569 40.164 169.145 40.362 169.949 40.494L171.983 40.818C173.303 41.034 174.275 41.43 174.899 42.006C175.535 42.57 175.853 43.338 175.853 44.31C175.853 44.886 175.733 45.414 175.493 45.894C175.253 46.374 174.911 46.782 174.467 47.118C174.035 47.454 173.507 47.718 172.883 47.91C172.259 48.09 171.575 48.18 170.831 48.18C169.823 48.18 168.851 47.982 167.915 47.586C166.979 47.19 166.151 46.632 165.431 45.912ZM178.288 37.362C177.988 37.362 177.73 37.254 177.514 37.038C177.298 36.81 177.19 36.546 177.19 36.246C177.19 35.946 177.298 35.688 177.514 35.472C177.73 35.244 177.988 35.13 178.288 35.13C178.588 35.13 178.846 35.244 179.062 35.472C179.29 35.688 179.404 35.946 179.404 36.246C179.404 36.546 179.29 36.81 179.062 37.038C178.846 37.254 178.588 37.362 178.288 37.362ZM179.188 38.838V48H177.388V38.838H179.188ZM188.328 48V47.136C187.944 47.46 187.512 47.712 187.032 47.892C186.552 48.06 186.048 48.144 185.52 48.144C184.872 48.144 184.266 48.024 183.702 47.784C183.138 47.532 182.646 47.196 182.226 46.776C181.818 46.356 181.494 45.858 181.254 45.282C181.014 44.694 180.894 44.07 180.894 43.41C180.894 42.75 181.014 42.132 181.254 41.556C181.494 40.98 181.818 40.482 182.226 40.062C182.646 39.642 183.144 39.312 183.72 39.072C184.296 38.82 184.908 38.694 185.556 38.694C186.06 38.694 186.546 38.772 187.014 38.928C187.482 39.084 187.914 39.306 188.31 39.594V35.4L190.11 35.004V48H188.328ZM182.658 43.392C182.658 44.292 182.958 45.048 183.558 45.66C184.158 46.272 184.896 46.578 185.772 46.578C186.288 46.578 186.762 46.482 187.194 46.29C187.638 46.098 188.01 45.828 188.31 45.48V41.322C188.01 40.986 187.638 40.722 187.194 40.53C186.75 40.338 186.276 40.242 185.772 40.242C184.896 40.242 184.158 40.542 183.558 41.142C182.958 41.742 182.658 42.492 182.658 43.392ZM192.242 48V38.838H194.042V40.008C194.318 39.564 194.672 39.228 195.104 39C195.536 38.76 196.022 38.64 196.562 38.64C196.754 38.64 196.922 38.652 197.066 38.676C197.21 38.7 197.348 38.736 197.48 38.784V40.404C197.312 40.344 197.138 40.296 196.958 40.26C196.778 40.224 196.598 40.206 196.418 40.206C195.89 40.206 195.416 40.35 194.996 40.638C194.588 40.914 194.27 41.328 194.042 41.88V48H192.242ZM201.433 48.162C200.437 48.162 199.627 47.904 199.003 47.388C198.379 46.872 198.067 46.2 198.067 45.372C198.067 44.508 198.397 43.83 199.057 43.338C199.717 42.834 200.623 42.582 201.775 42.582C202.219 42.582 202.651 42.63 203.071 42.726C203.491 42.81 203.893 42.93 204.277 43.086V42.114C204.277 41.466 204.085 40.98 203.701 40.656C203.317 40.332 202.765 40.17 202.045 40.17C201.625 40.17 201.187 40.236 200.731 40.368C200.275 40.488 199.765 40.68 199.201 40.944L198.535 39.594C199.219 39.27 199.867 39.036 200.479 38.892C201.091 38.736 201.697 38.658 202.297 38.658C203.485 38.658 204.403 38.946 205.051 39.522C205.711 40.086 206.041 40.89 206.041 41.934V48H204.277V47.208C203.869 47.532 203.431 47.772 202.963 47.928C202.495 48.084 201.985 48.162 201.433 48.162ZM199.795 45.336C199.795 45.78 199.981 46.14 200.353 46.416C200.737 46.692 201.235 46.83 201.847 46.83C202.327 46.83 202.771 46.758 203.179 46.614C203.587 46.47 203.953 46.254 204.277 45.966V44.382C203.929 44.19 203.563 44.052 203.179 43.968C202.795 43.872 202.375 43.824 201.919 43.824C201.271 43.824 200.755 43.962 200.371 44.238C199.987 44.514 199.795 44.88 199.795 45.336ZM208.115 51.726V38.838H209.897V39.72C210.269 39.384 210.695 39.132 211.175 38.964C211.655 38.784 212.165 38.694 212.705 38.694C213.353 38.694 213.959 38.82 214.523 39.072C215.087 39.312 215.573 39.642 215.981 40.062C216.401 40.482 216.731 40.98 216.971 41.556C217.211 42.132 217.331 42.75 217.331 43.41C217.331 44.07 217.211 44.694 216.971 45.282C216.731 45.858 216.401 46.356 215.981 46.776C215.573 47.196 215.081 47.532 214.505 47.784C213.929 48.024 213.317 48.144 212.669 48.144C212.165 48.144 211.673 48.066 211.193 47.91C210.725 47.754 210.299 47.532 209.915 47.244V51.726H208.115ZM212.471 40.26C211.955 40.26 211.475 40.356 211.031 40.548C210.587 40.74 210.215 41.01 209.915 41.358V45.498C210.203 45.834 210.569 46.098 211.013 46.29C211.469 46.482 211.955 46.578 212.471 46.578C213.347 46.578 214.079 46.278 214.667 45.678C215.267 45.078 215.567 44.328 215.567 43.428C215.567 42.528 215.267 41.778 214.667 41.178C214.067 40.566 213.335 40.26 212.471 40.26Z" fill="white"/>
<path fill-rule="evenodd" clip-rule="evenodd" d="M0.0704449 23.4216C0.0128293 23.9224 0.00122615 24.5814 0.00122615 25.4901V45.7971V47.1859C0.00122615 47.1859 -0.155616 49 3.07846 49L27.4963 45.7971C27.4963 45.7971 28 45.5374 28 44.7784V28.532C27.9976 28.5012 27.908 27.5101 26.4708 27.4012C25.7466 27.3466 20.1143 26.6568 14.6208 25.976V23.3791C14.6208 23.3791 14.5608 22.4919 13.3704 22.2823C8.25426 21.6472 3.601 21.0622 3.601 21.0622C1.24076 20.7587 0.284103 21.5695 0.0700448 23.4216H0.0704449Z" fill="white"/>
<path fill-rule="evenodd" clip-rule="evenodd" d="M1.53768 6H50.4623C51.3079 6 52 6.69168 52 7.53768V13.9683C52 14.8138 51.3083 15.5055 50.4623 15.5055H1.53768C0.692107 15.5055 0 14.8138 0 13.9683V7.53768C0 6.69168 0.691677 6 1.53768 6V6ZM45.4654 12.3601C44.5777 12.3601 43.8581 11.6405 43.8581 10.7528C43.8581 9.86505 44.5777 9.14543 45.4654 9.14543C46.3531 9.14543 47.0727 9.86505 47.0727 10.7528C47.0727 11.6405 46.3531 12.3601 45.4654 12.3601ZM39.3155 12.3601C38.4278 12.3601 37.7082 11.6405 37.7082 10.7528C37.7082 9.86505 38.4278 9.14543 39.3155 9.14543C40.2032 9.14543 40.9229 9.86505 40.9229 10.7528C40.9229 11.6405 40.2032 12.3601 39.3155 12.3601Z" fill="white"/>
<path fill-rule="evenodd" clip-rule="evenodd" d="M33.5299 20.8177H50.462C51.3076 20.8177 51.9997 21.5094 51.9997 22.3554V28.786C51.9997 29.6316 51.308 30.3232 50.462 30.3232H33.5299V20.8177Z" fill="#0A9F82"/>
<path fill-rule="evenodd" clip-rule="evenodd" d="M33.5299 35.6348H50.462C51.3076 35.6348 51.9997 36.3265 51.9997 37.1725V43.603C51.9997 44.4486 51.308 45.1403 50.462 45.1403H33.5299V35.6348Z" fill="#F2C942"/>
</svg>
