<svg width="262" height="55" viewBox="0 0 262 55" fill="none" xmlns="http://www.w3.org/2000/svg">
<path fill-rule="evenodd" clip-rule="evenodd" d="M50.8247 55H3.78683C1.70414 55 0 53.2837 0 51.1862V3.81376C0 1.71626 1.70414 0 3.78683 0H50.8247C52.9074 0 54.6116 1.71626 54.6116 3.81376V51.1862C54.6116 53.2837 52.9074 55 50.8247 55Z" fill="#D70218"/>
<path fill-rule="evenodd" clip-rule="evenodd" d="M32.1503 15.5324C34.4665 17.1809 40.9863 22.0122 40.9863 22.0122C38.7651 23.755 33.0789 28.9808 30.5794 29.2266C27.5233 29.5281 25.1425 27.0361 22.9161 25.1498L20.2926 27.5316C24.0807 30.5337 26.2558 33.1812 30.6612 32.8371C35.9213 32.4266 43.0492 25.5271 46.9151 22.0122L34.9651 13.3831L32.1503 15.5324Z" fill="white"/>
<path fill-rule="evenodd" clip-rule="evenodd" d="M7.66699 34.2348C8.62986 34.9747 9.7022 35.7783 10.8484 36.6086L26.9045 23.7472C28.6205 22.7496 30.7138 23.3726 31.3983 23.7712C32.0829 24.1697 40.9979 30.7757 40.9979 30.7757C38.7768 32.5185 33.0906 37.7443 30.5911 37.9901C27.7341 38.2717 25.1542 35.7996 22.9277 33.9133L20.3043 36.2951C20.8002 36.7945 26.2674 41.9446 30.6729 41.6006C35.933 41.1901 43.0608 34.2905 46.9268 30.7757L33.0919 20.7863C28.7142 18.2411 25.2808 20.7863 25.2808 20.7863L7.66699 34.2361V34.2348Z" fill="white"/>
<path d="M77.2932 24.8707C76.8904 24.8707 76.574 24.7594 76.3441 24.5369C76.1158 24.3143 76 24.0001 76 23.5959V11.4025C76 10.9983 76.1158 10.684 76.3441 10.4615C76.5724 10.2389 76.8904 10.126 77.2932 10.126H84.8162C85.219 10.126 85.5321 10.216 85.7539 10.3977C85.9757 10.5793 86.0866 10.8362 86.0866 11.1717C86.0866 11.5203 85.9757 11.7887 85.7539 11.9769C85.5321 12.1651 85.219 12.26 84.8162 12.26H78.6256V16.3168H84.3987C84.8015 16.3168 85.1146 16.4068 85.3364 16.5885C85.5582 16.7701 85.6691 17.0352 85.6691 17.3838C85.6691 17.7176 85.5582 17.9762 85.3364 18.1579C85.1146 18.3395 84.8015 18.4295 84.3987 18.4295H78.6256V22.7384H84.8162C85.219 22.7384 85.5321 22.8333 85.7539 23.0215C85.9757 23.2097 86.0866 23.4781 86.0866 23.8266C86.0866 24.1605 85.9757 24.419 85.7539 24.6007C85.5321 24.7823 85.219 24.8723 84.8162 24.8723H77.2932V24.8707ZM90.5941 20.3115C90.1913 20.3115 89.888 20.2198 89.6874 20.0398C89.4852 19.8582 89.3857 19.6078 89.3857 19.287C89.3857 18.9663 89.4868 18.7126 89.6874 18.5244C89.8896 18.3362 90.1913 18.2413 90.5941 18.2413H94.8881C95.2909 18.2413 95.5926 18.3346 95.7948 18.5244C95.997 18.7126 96.0965 18.9663 96.0965 19.287C96.0965 19.6078 95.9954 19.8582 95.7948 20.0398C95.5926 20.2215 95.2909 20.3115 94.8881 20.3115H90.5941ZM111.565 10.0213C111.953 10.0213 112.263 10.144 112.493 10.3878C112.723 10.6317 112.837 10.9557 112.837 11.3599V23.6368C112.837 24.041 112.718 24.3683 112.483 24.6203C112.246 24.8707 111.941 24.9967 111.566 24.9967C111.121 24.9967 110.782 24.8363 110.546 24.5156L102.938 14.5821V23.6384C102.938 24.0426 102.827 24.3699 102.605 24.622C102.383 24.8723 102.077 24.9983 101.689 24.9983C101.3 24.9983 100.994 24.8723 100.772 24.622C100.55 24.3716 100.438 24.0443 100.438 23.6384V11.3616C100.438 10.9573 100.557 10.6333 100.792 10.3895C101.028 10.1456 101.341 10.0229 101.729 10.0229C102.16 10.0229 102.493 10.1833 102.729 10.504L110.316 20.3966V11.3616C110.316 10.9573 110.43 10.6333 110.66 10.3895C110.888 10.1456 111.191 10.0229 111.566 10.0229L111.565 10.0213ZM118.926 24.9967C118.523 24.9967 118.201 24.8707 117.958 24.6203C117.715 24.3699 117.592 24.0426 117.592 23.6368V11.3599C117.592 10.9557 117.715 10.6317 117.958 10.3878C118.201 10.144 118.523 10.0213 118.926 10.0213C119.342 10.0213 119.673 10.144 119.916 10.3878C120.159 10.6317 120.281 10.9557 120.281 11.3599V23.6368C120.281 24.041 120.159 24.3683 119.916 24.6203C119.673 24.8707 119.342 24.9967 118.926 24.9967ZM138.356 23.2604C138.439 23.4421 138.481 23.6237 138.481 23.8037C138.481 24.1245 138.353 24.3961 138.096 24.6187C137.839 24.8412 137.544 24.9525 137.211 24.9525C136.989 24.9525 136.78 24.8936 136.586 24.7741C136.392 24.6563 136.239 24.4714 136.128 24.2194L134.877 21.4177H127.54L126.289 24.2194C126.178 24.4698 126.025 24.6547 125.831 24.7741C125.635 24.8936 125.422 24.9525 125.185 24.9525C124.866 24.9525 124.574 24.8412 124.31 24.6187C124.045 24.3961 123.913 24.1245 123.913 23.8037C123.913 23.6221 123.956 23.4404 124.039 23.2604L129.792 10.8575C129.918 10.5777 130.109 10.3666 130.365 10.2193C130.621 10.0736 130.896 10 131.188 10C131.48 10 131.754 10.0736 132.012 10.2193C132.27 10.3649 132.46 10.5777 132.586 10.8575L138.359 23.2604H138.356ZM128.455 19.3279H133.957L131.206 13.1159L128.455 19.3279ZM142.235 24.9967C141.166 25.0393 140.631 24.6694 140.631 23.8888C140.631 23.5533 140.717 23.2997 140.892 23.1246C141.066 22.9511 141.34 22.8496 141.715 22.8218L142.382 22.7793C142.951 22.7515 143.382 22.5698 143.674 22.2343C143.966 21.9005 144.111 21.3915 144.111 20.7075V11.3583C144.111 10.9541 144.233 10.63 144.476 10.3862C144.719 10.1424 145.042 10.0196 145.445 10.0196C145.861 10.0196 146.192 10.1424 146.435 10.3862C146.678 10.63 146.8 10.9541 146.8 11.3583V20.7075C146.8 23.3422 145.5 24.7578 142.902 24.9525L142.235 24.9951V24.9967ZM164.874 23.2604C164.958 23.4421 165 23.6237 165 23.8037C165 24.1245 164.871 24.3961 164.615 24.6187C164.357 24.8412 164.062 24.9525 163.73 24.9525C163.508 24.9525 163.299 24.8936 163.105 24.7741C162.911 24.6563 162.758 24.4714 162.647 24.2194L161.396 21.4177H154.059L152.808 24.2194C152.697 24.4698 152.544 24.6547 152.35 24.7741C152.154 24.8936 151.94 24.9525 151.704 24.9525C151.384 24.9525 151.092 24.8412 150.828 24.6187C150.564 24.3961 150.432 24.1245 150.432 23.8037C150.432 23.6221 150.474 23.4404 150.558 23.2604L156.311 10.8575C156.437 10.5777 156.627 10.3666 156.883 10.2193C157.139 10.0736 157.415 10 157.707 10C157.999 10 158.273 10.0736 158.531 10.2193C158.788 10.3649 158.979 10.5777 159.103 10.8575L164.876 23.2604H164.874ZM154.974 19.3279H160.476L157.725 13.1159L154.974 19.3279Z" fill="white"/>
<path d="M79.0189 45.9968C78.5418 45.9968 78.0889 45.9408 77.6572 45.8272C77.227 45.7152 76.8456 45.5568 76.5129 45.352C76.3262 45.2288 76.1948 45.1152 76.1169 45.0064C76.039 44.8992 76 44.7696 76 44.616C76 44.4832 76.039 44.3728 76.1169 44.2864C76.1948 44.2 76.2954 44.1568 76.4204 44.1568C76.5454 44.1568 76.7255 44.2336 76.9641 44.3872C77.2757 44.5712 77.5841 44.7168 77.8893 44.824C78.1944 44.9312 78.5758 44.9856 79.0335 44.9856C79.5935 44.9856 80.0285 44.888 80.3401 44.6944C80.6518 44.4992 80.8076 44.2192 80.8076 43.8512C80.8076 43.6272 80.7508 43.4448 80.6371 43.3072C80.5235 43.1696 80.3255 43.0464 80.0463 42.9392C79.7655 42.832 79.3565 42.7216 78.8177 42.6096C77.9055 42.416 77.2514 42.1552 76.857 41.8272C76.4626 41.5008 76.2662 41.056 76.2662 40.4928C76.2662 40.0528 76.3912 39.664 76.6395 39.328C76.8878 38.9904 77.2335 38.7248 77.6734 38.5312C78.1149 38.336 78.6148 38.24 79.1747 38.24C79.5789 38.24 79.9701 38.2928 80.3482 38.4016C80.728 38.5088 81.0624 38.6592 81.3513 38.8544C81.7035 39.0992 81.8804 39.3552 81.8804 39.6208C81.8804 39.7536 81.8382 39.8656 81.7555 39.9584C81.6727 40.0512 81.5737 40.096 81.4601 40.096C81.3351 40.096 81.15 40.0096 80.9001 39.8352C80.6096 39.6512 80.3353 39.5088 80.0756 39.4064C79.8159 39.304 79.4945 39.2528 79.1115 39.2528C78.6245 39.2528 78.2317 39.36 77.9363 39.5744C77.6409 39.7888 77.4932 40.0752 77.4932 40.4336C77.4932 40.6576 77.5484 40.84 77.6572 40.9776C77.7659 41.1152 77.9477 41.2384 78.2025 41.3456C78.4573 41.4528 78.8225 41.5568 79.2997 41.6592C80.0058 41.8128 80.5527 41.9808 80.9407 42.1648C81.3286 42.3488 81.6078 42.5744 81.7733 42.84C81.9389 43.1056 82.0216 43.4432 82.0216 43.8528C82.0216 44.4976 81.7473 45.016 81.1971 45.4096C80.6469 45.8032 79.9214 46 79.0189 46V45.9968ZM93.4952 38.2368C95.1751 38.2368 96.0159 39.224 96.0159 41.1968V45.352C96.0159 45.5472 95.9591 45.6976 95.8438 45.8048C95.7302 45.912 95.5793 45.9664 95.3926 45.9664C95.206 45.9664 95.0534 45.912 94.9333 45.8048C94.8132 45.6976 94.7547 45.5472 94.7547 45.352V41.2272C94.7547 40.5424 94.6298 40.0464 94.3814 39.7392C94.1331 39.432 93.7435 39.2784 93.2144 39.2784C92.5814 39.2784 92.0831 39.488 91.7212 39.9072C91.3576 40.3264 91.1758 40.8944 91.1758 41.6096V45.352C91.1758 45.5472 91.1158 45.6976 90.9973 45.8048C90.8772 45.912 90.7246 45.9664 90.538 45.9664C90.3513 45.9664 90.2004 45.912 90.0867 45.8048C89.9731 45.6976 89.9163 45.5472 89.9163 45.352V41.2272C89.9163 40.5424 89.7913 40.0464 89.543 39.7392C89.2947 39.432 88.9003 39.2784 88.3614 39.2784C87.7398 39.2784 87.2431 39.488 86.8763 39.9072C86.5078 40.3264 86.3228 40.8944 86.3228 41.6096V45.352C86.3228 45.5472 86.266 45.6976 86.1524 45.8048C86.0388 45.912 85.8878 45.9664 85.7012 45.9664C85.5145 45.9664 85.3619 45.912 85.2418 45.8048C85.1217 45.6976 85.0633 45.5472 85.0633 45.352V38.88C85.0633 38.696 85.1233 38.5472 85.2418 38.4352C85.3619 38.3232 85.5145 38.2672 85.7012 38.2672C85.8781 38.2672 86.0225 38.32 86.1362 38.4288C86.2498 38.536 86.3066 38.6816 86.3066 38.8656V39.6016C86.5354 39.1616 86.8519 38.824 87.2561 38.5904C87.6602 38.3552 88.1277 38.2368 88.6568 38.2368C89.8384 38.2368 90.6126 38.728 90.9746 39.7088C91.1921 39.2592 91.5248 38.9008 91.9695 38.6352C92.4159 38.3696 92.9239 38.2368 93.4936 38.2368H93.4952ZM102.542 38.2368C104.44 38.2368 105.389 39.2176 105.389 41.1808V45.352C105.389 45.536 105.334 45.6848 105.225 45.7968C105.116 45.9104 104.969 45.9664 104.782 45.9664C104.595 45.9664 104.445 45.9104 104.331 45.7968C104.217 45.6848 104.16 45.536 104.16 45.352V44.616C103.962 45.056 103.662 45.3952 103.258 45.6368C102.854 45.8768 102.386 45.9968 101.857 45.9968C101.37 45.9968 100.921 45.8992 100.512 45.7056C100.103 45.5104 99.7782 45.24 99.5396 44.8928C99.301 44.5456 99.1809 44.1616 99.1809 43.7424C99.1809 43.1808 99.3253 42.7424 99.6175 42.4304C99.908 42.1184 100.385 41.8944 101.049 41.7552C101.713 41.6176 102.636 41.5488 103.818 41.5488H104.16V41.0432C104.16 40.4288 104.032 39.9792 103.779 39.6928C103.524 39.4064 103.112 39.264 102.542 39.264C101.836 39.264 101.122 39.4528 100.395 39.8304C100.114 40.0048 99.9178 40.0912 99.8041 40.0912C99.6792 40.0912 99.5769 40.0464 99.4925 39.9536C99.4097 39.8608 99.3675 39.744 99.3675 39.6C99.3675 39.4576 99.4114 39.3312 99.499 39.224C99.5867 39.1168 99.7295 39.0064 99.9259 38.8944C100.289 38.6896 100.702 38.5296 101.163 38.4112C101.624 38.2928 102.083 38.2352 102.539 38.2352L102.542 38.2368ZM102.029 45.016C102.653 45.016 103.162 44.808 103.562 44.3952C103.961 43.9808 104.16 43.4464 104.16 42.792V42.3472H103.88C102.968 42.3472 102.271 42.3856 101.794 42.4624C101.317 42.5392 100.978 42.6672 100.775 42.8464C100.572 43.0256 100.471 43.288 100.471 43.6368C100.471 44.0352 100.619 44.3648 100.914 44.6256C101.21 44.8864 101.581 45.016 102.026 45.016H102.029ZM112.57 38.2672C113.006 38.2368 113.224 38.4096 113.224 38.7888C113.224 38.952 113.177 39.0832 113.084 39.1792C112.992 39.2768 112.831 39.3344 112.602 39.3552L112.135 39.4016C111.44 39.4624 110.924 39.7056 110.586 40.1296C110.249 40.5536 110.08 41.0528 110.08 41.624V45.3504C110.08 45.5552 110.023 45.7088 109.909 45.8112C109.796 45.9136 109.645 45.9648 109.458 45.9648C109.272 45.9648 109.119 45.9104 108.999 45.8032C108.879 45.696 108.82 45.5456 108.82 45.3504V38.8784C108.82 38.6848 108.882 38.5328 109.007 38.4256C109.132 38.3184 109.281 38.264 109.458 38.264C109.624 38.264 109.763 38.3168 109.879 38.4256C109.992 38.5328 110.049 38.6784 110.049 38.8624V39.7216C110.267 39.272 110.577 38.9296 110.974 38.6944C111.373 38.4592 111.833 38.3216 112.351 38.28L112.568 38.264L112.57 38.2672ZM119.547 44.984C119.911 45.0144 120.093 45.1776 120.093 45.4752C120.093 45.6496 120.028 45.7792 119.898 45.8656C119.768 45.952 119.573 45.9856 119.314 45.9648L118.893 45.9344C118.064 45.8736 117.452 45.6272 117.058 45.1984C116.663 44.7696 116.467 44.12 116.467 43.2512V39.4016H115.425C115.248 39.4016 115.111 39.3584 115.012 39.272C114.913 39.1856 114.865 39.0704 114.865 38.9264C114.865 38.7728 114.913 38.6496 115.012 38.5584C115.111 38.4656 115.248 38.4208 115.425 38.4208H116.467V36.688C116.467 36.4944 116.524 36.3424 116.637 36.2352C116.751 36.128 116.907 36.0736 117.105 36.0736C117.291 36.0736 117.442 36.1264 117.556 36.2352C117.671 36.3424 117.728 36.4928 117.728 36.688V38.4208H119.455C119.62 38.4208 119.753 38.4672 119.851 38.5584C119.95 38.6496 119.999 38.7728 119.999 38.9264C119.999 39.0688 119.95 39.184 119.851 39.272C119.752 39.3584 119.62 39.4016 119.455 39.4016H117.728V43.312C117.728 43.8736 117.845 44.28 118.078 44.5312C118.312 44.7824 118.661 44.9216 119.129 44.9536L119.549 44.984H119.547ZM129.575 38.2352C131.472 38.2352 132.422 39.216 132.422 41.1792V45.3504C132.422 45.5344 132.366 45.6832 132.258 45.7952C132.149 45.9088 132.001 45.9648 131.815 45.9648C131.628 45.9648 131.477 45.9088 131.363 45.7952C131.25 45.6832 131.193 45.5344 131.193 45.3504V44.6144C130.995 45.0544 130.695 45.3936 130.291 45.6352C129.886 45.8752 129.419 45.9952 128.89 45.9952C128.403 45.9952 127.953 45.8976 127.544 45.704C127.135 45.5088 126.811 45.2384 126.572 44.8912C126.333 44.544 126.213 44.16 126.213 43.7408C126.213 43.1792 126.358 42.7408 126.65 42.4288C126.94 42.1168 127.418 41.8928 128.082 41.7536C128.745 41.616 129.669 41.5472 130.85 41.5472H131.193V41.0416C131.193 40.4272 131.065 39.9776 130.812 39.6912C130.557 39.4048 130.144 39.2624 129.575 39.2624C128.869 39.2624 128.155 39.4512 127.427 39.8288C127.147 40.0032 126.95 40.0896 126.837 40.0896C126.712 40.0896 126.609 40.0448 126.525 39.952C126.442 39.8592 126.4 39.7424 126.4 39.5984C126.4 39.456 126.444 39.3296 126.531 39.2224C126.619 39.1152 126.762 39.0048 126.958 38.8928C127.322 38.688 127.734 38.528 128.195 38.4096C128.656 38.2912 129.115 38.2336 129.571 38.2336L129.575 38.2352ZM129.062 45.0144C129.685 45.0144 130.195 44.8064 130.594 44.3936C130.993 43.9792 131.193 43.4448 131.193 42.7904V42.3456H130.912C130 42.3456 129.304 42.384 128.827 42.4608C128.349 42.5376 128.01 42.6656 127.807 42.8448C127.604 43.024 127.504 43.2864 127.504 43.6352C127.504 44.0336 127.651 44.3632 127.947 44.624C128.242 44.8848 128.614 45.0144 129.059 45.0144H129.062ZM139.664 38.2352C140.328 38.2352 140.914 38.3936 141.422 38.7104C141.93 39.0272 142.324 39.4768 142.603 40.0608C142.884 40.6432 143.024 41.3184 143.024 42.0848C143.024 42.8624 142.884 43.544 142.603 44.1328C142.324 44.72 141.93 45.1776 141.422 45.5056C140.914 45.832 140.328 45.9968 139.664 45.9968C139.073 45.9968 138.557 45.8688 138.115 45.6128C137.674 45.3568 137.34 44.9936 137.112 44.5248V45.352C137.112 45.536 137.059 45.6848 136.948 45.7968C136.84 45.9104 136.687 45.9664 136.489 45.9664C136.291 45.9664 136.137 45.9104 136.022 45.7968C135.906 45.6848 135.85 45.536 135.85 45.352V35.5984C135.85 35.424 135.906 35.2816 136.022 35.168C136.135 35.056 136.291 35 136.489 35C136.685 35 136.84 35.0528 136.948 35.1616C137.057 35.2688 137.112 35.4144 137.112 35.5984V39.7088C137.341 39.2384 137.676 38.8752 138.115 38.6192C138.557 38.3632 139.073 38.2368 139.664 38.2368V38.2352ZM139.416 44.968C140.152 44.968 140.722 44.7152 141.126 44.208C141.53 43.7024 141.733 42.9936 141.733 42.0832C141.733 41.1936 141.53 40.504 141.126 40.0128C140.722 39.5216 140.151 39.2768 139.416 39.2768C138.679 39.2768 138.111 39.5216 137.711 40.0128C137.312 40.504 137.112 41.2032 137.112 42.1136C137.112 43.024 137.312 43.7264 137.711 44.2224C138.111 44.7184 138.679 44.9664 139.416 44.9664V44.968ZM148.588 45.9952C148.11 45.9952 147.658 45.9392 147.226 45.8256C146.796 45.7136 146.414 45.5552 146.082 45.3504C145.895 45.2272 145.763 45.1136 145.685 45.0048C145.608 44.8976 145.569 44.768 145.569 44.6144C145.569 44.4816 145.608 44.3712 145.685 44.2848C145.763 44.1984 145.864 44.1552 145.989 44.1552C146.114 44.1552 146.294 44.232 146.533 44.3856C146.844 44.5696 147.153 44.7152 147.458 44.8224C147.763 44.9296 148.144 44.984 148.602 44.984C149.162 44.984 149.597 44.8864 149.909 44.6928C150.22 44.4976 150.376 44.2176 150.376 43.8496C150.376 43.6256 150.319 43.4432 150.206 43.3056C150.092 43.168 149.894 43.0448 149.615 42.9376C149.334 42.8304 148.925 42.72 148.386 42.608C147.474 42.4144 146.82 42.1536 146.426 41.8256C146.031 41.4992 145.835 41.0544 145.835 40.4912C145.835 40.0512 145.96 39.6624 146.208 39.3264C146.456 38.9888 146.802 38.7232 147.242 38.5296C147.683 38.3344 148.183 38.2384 148.743 38.2384C149.148 38.2384 149.539 38.2912 149.917 38.4C150.297 38.5072 150.631 38.6576 150.92 38.8528C151.272 39.0976 151.449 39.3536 151.449 39.6192C151.449 39.752 151.407 39.864 151.324 39.9568C151.241 40.0496 151.142 40.0944 151.029 40.0944C150.904 40.0944 150.719 40.008 150.469 39.8336C150.178 39.6496 149.904 39.5072 149.644 39.4048C149.384 39.3024 149.063 39.2512 148.68 39.2512C148.193 39.2512 147.8 39.3584 147.505 39.5728C147.21 39.7872 147.062 40.0736 147.062 40.432C147.062 40.656 147.117 40.8384 147.226 40.976C147.335 41.1136 147.516 41.2368 147.771 41.344C148.026 41.4512 148.391 41.5552 148.868 41.6576C149.574 41.8112 150.121 41.9792 150.509 42.1632C150.897 42.3472 151.176 42.5728 151.342 42.8384C151.507 43.104 151.59 43.4416 151.59 43.8512C151.59 44.496 151.316 45.0144 150.766 45.408C150.216 45.8016 149.49 45.9984 148.588 45.9984V45.9952ZM160.498 44.1552C160.611 44.1552 160.71 44.2016 160.793 44.2928C160.876 44.3856 160.918 44.5024 160.918 44.6464C160.918 44.9024 160.736 45.1376 160.373 45.352C159.999 45.5664 159.605 45.728 159.191 45.8352C158.777 45.9424 158.371 45.9968 157.977 45.9968C156.805 45.9968 155.88 45.6544 155.2 44.9696C154.52 44.2848 154.181 43.3392 154.181 42.1328C154.181 41.3664 154.332 40.688 154.632 40.1008C154.932 39.5136 155.356 39.0544 155.9 38.728C156.445 38.4016 157.063 38.2368 157.758 38.2368C158.743 38.2368 159.526 38.5536 160.107 39.1872C160.688 39.8208 160.978 40.68 160.978 41.7632C160.978 41.968 160.936 42.1152 160.853 42.208C160.77 42.3008 160.636 42.3456 160.449 42.3456H155.44C155.534 44.104 156.378 44.984 157.975 44.984C158.38 44.984 158.727 44.9296 159.017 44.8224C159.308 44.7152 159.62 44.5696 159.951 44.3856C160.22 44.232 160.402 44.1552 160.496 44.1552H160.498ZM157.776 39.2016C157.112 39.2016 156.58 39.4064 156.182 39.816C155.783 40.224 155.546 40.8016 155.474 41.5488H159.876C159.855 40.792 159.663 40.2112 159.302 39.808C158.938 39.4048 158.43 39.2016 157.777 39.2016H157.776ZM167.772 38.2352C169.587 38.2352 170.494 39.2224 170.494 41.1952V45.3504C170.494 45.5456 170.441 45.696 170.33 45.8032C170.222 45.9104 170.069 45.9648 169.871 45.9648C169.673 45.9648 169.519 45.9104 169.404 45.8032C169.288 45.696 169.232 45.5456 169.232 45.3504V41.272C169.232 40.576 169.095 40.0704 168.819 39.7536C168.545 39.4368 168.107 39.2784 167.505 39.2784C166.81 39.2784 166.255 39.488 165.841 39.9072C165.425 40.3264 165.218 40.8944 165.218 41.6096V45.352C165.218 45.5472 165.164 45.6976 165.054 45.8048C164.945 45.912 164.792 45.9664 164.594 45.9664C164.396 45.9664 164.242 45.912 164.127 45.8048C164.012 45.6976 163.955 45.5472 163.955 45.352V38.88C163.955 38.696 164.012 38.5472 164.127 38.4352C164.241 38.3232 164.396 38.2672 164.594 38.2672C164.781 38.2672 164.929 38.3232 165.038 38.4352C165.146 38.5472 165.2 38.6912 165.2 38.864V39.6464C165.448 39.1856 165.797 38.8368 166.242 38.5968C166.688 38.3568 167.196 38.2368 167.766 38.2368L167.772 38.2352ZM176.477 45.9952C176 45.9952 175.547 45.9392 175.115 45.8256C174.685 45.7136 174.304 45.5552 173.971 45.3504C173.784 45.2272 173.653 45.1136 173.575 45.0048C173.497 44.8976 173.458 44.768 173.458 44.6144C173.458 44.4816 173.497 44.3712 173.575 44.2848C173.653 44.1984 173.753 44.1552 173.878 44.1552C174.003 44.1552 174.184 44.232 174.422 44.3856C174.734 44.5696 175.042 44.7152 175.347 44.8224C175.652 44.9296 176.034 44.984 176.492 44.984C177.052 44.984 177.487 44.8864 177.798 44.6928C178.11 44.4976 178.266 44.2176 178.266 43.8496C178.266 43.6256 178.209 43.4432 178.095 43.3056C177.982 43.168 177.784 43.0448 177.504 42.9376C177.224 42.8304 176.815 42.72 176.276 42.608C175.364 42.4144 174.709 42.1536 174.315 41.8256C173.921 41.4992 173.724 41.0544 173.724 40.4912C173.724 40.0512 173.849 39.6624 174.098 39.3264C174.346 38.9888 174.692 38.7232 175.131 38.5296C175.573 38.3344 176.073 38.2384 176.633 38.2384C177.037 38.2384 177.428 38.2912 177.806 38.4C178.186 38.5072 178.52 38.6576 178.809 38.8528C179.162 39.0976 179.339 39.3536 179.339 39.6192C179.339 39.752 179.296 39.864 179.214 39.9568C179.131 40.0496 179.032 40.0944 178.918 40.0944C178.793 40.0944 178.608 40.008 178.358 39.8336C178.068 39.6496 177.793 39.5072 177.534 39.4048C177.274 39.3024 176.953 39.2512 176.57 39.2512C176.083 39.2512 175.69 39.3584 175.394 39.5728C175.099 39.7872 174.951 40.0736 174.951 40.432C174.951 40.656 175.006 40.8384 175.115 40.976C175.224 41.1136 175.406 41.2368 175.661 41.344C175.915 41.4512 176.281 41.5552 176.758 41.6576C177.464 41.8112 178.011 41.9792 178.399 42.1632C178.787 42.3472 179.066 42.5728 179.231 42.8384C179.397 43.104 179.48 43.4416 179.48 43.8512C179.48 44.496 179.205 45.0144 178.655 45.408C178.105 45.8016 177.379 45.9984 176.477 45.9984V45.9952ZM183.159 45.9648C182.973 45.9648 182.82 45.9104 182.7 45.8032C182.58 45.696 182.521 45.5456 182.521 45.3504V38.8784C182.521 38.6848 182.581 38.5328 182.7 38.4256C182.82 38.3184 182.973 38.264 183.159 38.264C183.346 38.264 183.497 38.3168 183.61 38.4256C183.724 38.5328 183.781 38.6832 183.781 38.8784V45.3504C183.781 45.5552 183.724 45.7088 183.61 45.8112C183.497 45.9136 183.346 45.9648 183.159 45.9648ZM183.159 36.656C182.911 36.656 182.708 36.584 182.552 36.4416C182.396 36.2992 182.318 36.1088 182.318 35.8736C182.318 35.6496 182.396 35.4656 182.552 35.3216C182.708 35.1792 182.911 35.1072 183.159 35.1072C183.408 35.1072 183.61 35.1792 183.766 35.3216C183.922 35.464 184 35.648 184 35.8736C184 36.1088 183.922 36.2976 183.766 36.4416C183.61 36.584 183.409 36.656 183.159 36.656Z" fill="white"/>
</svg>
