<svg width="261" height="55" viewBox="0 0 261 55" fill="none" xmlns="http://www.w3.org/2000/svg">
<path d="M72.072 19.336L74.064 16.84C75.04 17.688 75.976 18.312 76.872 18.712C77.784 19.096 78.744 19.288 79.752 19.288C80.792 19.288 81.624 19.096 82.248 18.712C82.872 18.328 83.184 17.816 83.184 17.176C83.184 16.6 82.968 16.152 82.536 15.832C82.12 15.512 81.416 15.272 80.424 15.112L77.088 14.536C75.648 14.296 74.552 13.792 73.8 13.024C73.064 12.256 72.696 11.264 72.696 10.048C72.696 8.48 73.288 7.24 74.472 6.328C75.672 5.416 77.288 4.96 79.32 4.96C80.536 4.96 81.76 5.168 82.992 5.584C84.24 6 85.328 6.576 86.256 7.312L84.384 9.904C83.488 9.216 82.608 8.712 81.744 8.392C80.88 8.056 79.992 7.888 79.08 7.888C78.152 7.888 77.408 8.064 76.848 8.416C76.288 8.752 76.008 9.208 76.008 9.784C76.008 10.296 76.192 10.696 76.56 10.984C76.928 11.272 77.544 11.48 78.408 11.608L81.576 12.136C83.24 12.408 84.488 12.944 85.32 13.744C86.168 14.528 86.592 15.568 86.592 16.864C86.592 18.496 85.944 19.8 84.648 20.776C83.368 21.752 81.656 22.24 79.512 22.24C78.168 22.24 76.84 21.984 75.528 21.472C74.232 20.96 73.08 20.248 72.072 19.336ZM90.0921 8.008C89.5801 8.008 89.1401 7.824 88.7721 7.456C88.4041 7.088 88.2201 6.648 88.2201 6.136C88.2201 5.624 88.4041 5.184 88.7721 4.816C89.1401 4.448 89.5801 4.264 90.0921 4.264C90.6041 4.264 91.0441 4.448 91.4121 4.816C91.7801 5.184 91.9641 5.624 91.9641 6.136C91.9641 6.648 91.7801 7.088 91.4121 7.456C91.0441 7.824 90.6041 8.008 90.0921 8.008ZM91.7481 9.496V22H88.4601V9.496H91.7481ZM94.3194 22V9.496H97.6074V10.432C98.0554 10.048 98.5514 9.76 99.0954 9.568C99.6394 9.36 100.231 9.256 100.871 9.256C101.671 9.256 102.391 9.424 103.031 9.76C103.687 10.08 104.223 10.536 104.639 11.128C105.135 10.52 105.735 10.056 106.439 9.736C107.143 9.416 107.919 9.256 108.767 9.256C110.159 9.256 111.303 9.72 112.199 10.648C113.095 11.576 113.543 12.768 113.543 14.224V22H110.255V14.704C110.255 13.92 110.039 13.288 109.607 12.808C109.191 12.328 108.623 12.088 107.903 12.088C107.407 12.088 106.951 12.2 106.535 12.424C106.135 12.632 105.791 12.936 105.503 13.336C105.519 13.48 105.535 13.624 105.551 13.768C105.567 13.912 105.575 14.064 105.575 14.224V22H102.287V14.704C102.287 13.92 102.071 13.288 101.639 12.808C101.223 12.328 100.655 12.088 99.9354 12.088C99.4394 12.088 98.9994 12.184 98.6154 12.376C98.2314 12.568 97.8954 12.848 97.6074 13.216V22H94.3194ZM116.069 27.016V9.496H119.309V10.528C119.805 10.128 120.357 9.832 120.965 9.64C121.573 9.432 122.205 9.328 122.861 9.328C123.741 9.328 124.565 9.496 125.333 9.832C126.117 10.168 126.797 10.624 127.373 11.2C127.949 11.776 128.397 12.456 128.717 13.24C129.053 14.024 129.221 14.864 129.221 15.76C129.221 16.656 129.053 17.496 128.717 18.28C128.381 19.064 127.925 19.744 127.349 20.32C126.773 20.896 126.085 21.352 125.285 21.688C124.501 22.008 123.661 22.168 122.765 22.168C122.157 22.168 121.557 22.088 120.965 21.928C120.389 21.752 119.853 21.504 119.357 21.184V27.016H116.069ZM122.333 12.136C121.741 12.136 121.189 12.24 120.677 12.448C120.165 12.64 119.725 12.928 119.357 13.312V18.232C119.709 18.584 120.141 18.864 120.653 19.072C121.181 19.28 121.741 19.384 122.333 19.384C123.357 19.384 124.221 19.04 124.925 18.352C125.629 17.648 125.981 16.784 125.981 15.76C125.981 14.736 125.621 13.88 124.901 13.192C124.197 12.488 123.341 12.136 122.333 12.136ZM142.535 20.44C141.767 21.064 140.975 21.52 140.159 21.808C139.359 22.096 138.463 22.24 137.471 22.24C136.527 22.24 135.639 22.072 134.807 21.736C133.991 21.4 133.279 20.944 132.671 20.368C132.079 19.792 131.607 19.112 131.255 18.328C130.919 17.528 130.751 16.672 130.751 15.76C130.751 14.864 130.911 14.024 131.231 13.24C131.567 12.44 132.023 11.752 132.599 11.176C133.175 10.584 133.855 10.12 134.639 9.784C135.439 9.448 136.287 9.28 137.183 9.28C138.063 9.28 138.879 9.456 139.631 9.808C140.399 10.144 141.055 10.608 141.599 11.2C142.159 11.792 142.591 12.504 142.895 13.336C143.215 14.152 143.375 15.04 143.375 16V16.864H134.063C134.287 17.648 134.719 18.28 135.359 18.76C135.999 19.24 136.751 19.48 137.615 19.48C138.159 19.48 138.671 19.392 139.151 19.216C139.631 19.04 140.039 18.792 140.375 18.472L142.535 20.44ZM137.111 11.992C136.359 11.992 135.711 12.224 135.167 12.688C134.623 13.136 134.247 13.744 134.039 14.512H140.159C139.951 13.776 139.567 13.176 139.007 12.712C138.463 12.232 137.831 11.992 137.111 11.992ZM151.243 22.072C150.364 22.072 149.532 21.904 148.748 21.568C147.98 21.232 147.308 20.776 146.732 20.2C146.172 19.624 145.724 18.952 145.388 18.184C145.068 17.4 144.908 16.56 144.908 15.664C144.908 14.784 145.076 13.96 145.412 13.192C145.748 12.408 146.204 11.728 146.78 11.152C147.356 10.576 148.036 10.128 148.82 9.808C149.604 9.472 150.444 9.304 151.34 9.304C151.964 9.304 152.556 9.392 153.116 9.568C153.692 9.744 154.228 9.992 154.724 10.312V9.496H157.964V22C157.964 23.648 157.428 24.92 156.356 25.816C155.3 26.712 153.772 27.16 151.772 27.16C150.812 27.16 149.884 27.064 148.988 26.872C148.108 26.68 147.3 26.4 146.564 26.032L147.715 23.464C148.404 23.8 149.076 24.048 149.732 24.208C150.388 24.384 151.044 24.472 151.7 24.472C152.676 24.472 153.412 24.256 153.908 23.824C154.42 23.408 154.676 22.792 154.676 21.976V20.944C154.18 21.312 153.636 21.592 153.044 21.784C152.468 21.976 151.868 22.072 151.243 22.072ZM148.148 15.664C148.148 16.672 148.492 17.528 149.18 18.232C149.884 18.936 150.74 19.288 151.748 19.288C152.34 19.288 152.884 19.192 153.38 19C153.876 18.792 154.308 18.512 154.676 18.16V13.24C154.324 12.888 153.892 12.616 153.38 12.424C152.868 12.216 152.332 12.112 151.772 12.112C150.764 12.112 149.908 12.456 149.204 13.144C148.5 13.832 148.148 14.672 148.148 15.664Z" fill="white"/>
<path d="M73.278 48V35.4H75.168V41.268L81.27 35.4H83.646L77.148 41.484L83.862 48H81.27L75.168 42.006V48H73.278ZM87.1748 48.162C86.1788 48.162 85.3688 47.904 84.7448 47.388C84.1208 46.872 83.8088 46.2 83.8088 45.372C83.8088 44.508 84.1388 43.83 84.7988 43.338C85.4588 42.834 86.3648 42.582 87.5168 42.582C87.9608 42.582 88.3928 42.63 88.8128 42.726C89.2328 42.81 89.6348 42.93 90.0188 43.086V42.114C90.0188 41.466 89.8268 40.98 89.4428 40.656C89.0588 40.332 88.5068 40.17 87.7868 40.17C87.3668 40.17 86.9288 40.236 86.4728 40.368C86.0168 40.488 85.5068 40.68 84.9428 40.944L84.2768 39.594C84.9608 39.27 85.6088 39.036 86.2208 38.892C86.8328 38.736 87.4388 38.658 88.0388 38.658C89.2268 38.658 90.1448 38.946 90.7928 39.522C91.4528 40.086 91.7828 40.89 91.7828 41.934V48H90.0188V47.208C89.6108 47.532 89.1728 47.772 88.7048 47.928C88.2368 48.084 87.7268 48.162 87.1748 48.162ZM85.5368 45.336C85.5368 45.78 85.7228 46.14 86.0948 46.416C86.4788 46.692 86.9768 46.83 87.5888 46.83C88.0688 46.83 88.5128 46.758 88.9208 46.614C89.3288 46.47 89.6948 46.254 90.0188 45.966V44.382C89.6708 44.19 89.3048 44.052 88.9208 43.968C88.5368 43.872 88.1168 43.824 87.6608 43.824C87.0128 43.824 86.4968 43.962 86.1128 44.238C85.7288 44.514 85.5368 44.88 85.5368 45.336ZM103.073 43.41C103.073 44.07 102.953 44.694 102.713 45.282C102.473 45.858 102.143 46.356 101.723 46.776C101.315 47.196 100.823 47.532 100.247 47.784C99.6709 48.024 99.0589 48.144 98.4109 48.144C97.8949 48.144 97.4029 48.066 96.9349 47.91C96.4669 47.754 96.0349 47.526 95.6389 47.226V48H93.8569V35.4L95.6569 35.004V39.702C96.0289 39.378 96.4549 39.132 96.9349 38.964C97.4149 38.784 97.9189 38.694 98.4469 38.694C99.0949 38.694 99.7009 38.82 100.265 39.072C100.829 39.312 101.315 39.642 101.723 40.062C102.143 40.482 102.473 40.98 102.713 41.556C102.953 42.132 103.073 42.75 103.073 43.41ZM98.2129 40.26C97.6969 40.26 97.2169 40.356 96.7729 40.548C96.3289 40.74 95.9569 41.01 95.6569 41.358V45.498C95.9449 45.834 96.3109 46.098 96.7549 46.29C97.2109 46.482 97.6969 46.578 98.2129 46.578C99.0889 46.578 99.8209 46.278 100.409 45.678C101.009 45.078 101.309 44.328 101.309 43.428C101.309 42.528 101.009 41.778 100.409 41.178C99.8089 40.566 99.0769 40.26 98.2129 40.26ZM106.555 38.838V44.274C106.555 44.994 106.759 45.564 107.167 45.984C107.587 46.404 108.139 46.614 108.823 46.614C109.303 46.614 109.735 46.512 110.119 46.308C110.503 46.092 110.821 45.792 111.073 45.408V38.838H112.873V48H111.073V47.082C110.713 47.442 110.299 47.718 109.831 47.91C109.375 48.09 108.871 48.18 108.319 48.18C107.275 48.18 106.417 47.844 105.745 47.172C105.085 46.5 104.755 45.636 104.755 44.58V38.838H106.555ZM115.003 51.726V38.838H116.785V39.72C117.157 39.384 117.583 39.132 118.063 38.964C118.543 38.784 119.053 38.694 119.593 38.694C120.241 38.694 120.847 38.82 121.411 39.072C121.975 39.312 122.461 39.642 122.869 40.062C123.289 40.482 123.619 40.98 123.859 41.556C124.099 42.132 124.219 42.75 124.219 43.41C124.219 44.07 124.099 44.694 123.859 45.282C123.619 45.858 123.289 46.356 122.869 46.776C122.461 47.196 121.969 47.532 121.393 47.784C120.817 48.024 120.205 48.144 119.557 48.144C119.053 48.144 118.561 48.066 118.081 47.91C117.613 47.754 117.187 47.532 116.803 47.244V51.726H115.003ZM119.359 40.26C118.843 40.26 118.363 40.356 117.919 40.548C117.475 40.74 117.103 41.01 116.803 41.358V45.498C117.091 45.834 117.457 46.098 117.901 46.29C118.357 46.482 118.843 46.578 119.359 46.578C120.235 46.578 120.967 46.278 121.555 45.678C122.155 45.078 122.455 44.328 122.455 43.428C122.455 42.528 122.155 41.778 121.555 41.178C120.955 40.566 120.223 40.26 119.359 40.26ZM128.923 48.162C127.927 48.162 127.117 47.904 126.493 47.388C125.869 46.872 125.557 46.2 125.557 45.372C125.557 44.508 125.887 43.83 126.547 43.338C127.207 42.834 128.113 42.582 129.265 42.582C129.709 42.582 130.141 42.63 130.561 42.726C130.981 42.81 131.383 42.93 131.767 43.086V42.114C131.767 41.466 131.575 40.98 131.191 40.656C130.807 40.332 130.255 40.17 129.535 40.17C129.115 40.17 128.677 40.236 128.221 40.368C127.765 40.488 127.255 40.68 126.691 40.944L126.025 39.594C126.709 39.27 127.357 39.036 127.969 38.892C128.581 38.736 129.187 38.658 129.787 38.658C130.975 38.658 131.893 38.946 132.541 39.522C133.201 40.086 133.531 40.89 133.531 41.934V48H131.767V47.208C131.359 47.532 130.921 47.772 130.453 47.928C129.985 48.084 129.475 48.162 128.923 48.162ZM127.285 45.336C127.285 45.78 127.471 46.14 127.843 46.416C128.227 46.692 128.725 46.83 129.337 46.83C129.817 46.83 130.261 46.758 130.669 46.614C131.077 46.47 131.443 46.254 131.767 45.966V44.382C131.419 44.19 131.053 44.052 130.669 43.968C130.285 43.872 129.865 43.824 129.409 43.824C128.761 43.824 128.245 43.962 127.861 44.238C127.477 44.514 127.285 44.88 127.285 45.336ZM136.441 45.732V40.35H134.497V38.838H136.441V36.498L138.223 36.066V38.838H140.923V40.35H138.223V45.318C138.223 45.786 138.325 46.116 138.529 46.308C138.745 46.5 139.093 46.596 139.573 46.596C139.825 46.596 140.047 46.584 140.239 46.56C140.443 46.524 140.659 46.464 140.887 46.38V47.892C140.647 47.976 140.365 48.042 140.041 48.09C139.729 48.138 139.441 48.162 139.177 48.162C138.289 48.162 137.611 47.958 137.143 47.55C136.675 47.13 136.441 46.524 136.441 45.732ZM149.994 46.956C149.466 47.364 148.914 47.67 148.338 47.874C147.762 48.066 147.132 48.162 146.448 48.162C145.776 48.162 145.146 48.042 144.558 47.802C143.97 47.55 143.46 47.214 143.028 46.794C142.596 46.374 142.254 45.876 142.002 45.3C141.762 44.712 141.642 44.082 141.642 43.41C141.642 42.75 141.762 42.132 142.002 41.556C142.242 40.98 142.566 40.482 142.974 40.062C143.382 39.642 143.868 39.312 144.432 39.072C144.996 38.82 145.596 38.694 146.232 38.694C146.856 38.694 147.438 38.82 147.978 39.072C148.53 39.312 148.998 39.648 149.382 40.08C149.778 40.5 150.09 41.004 150.318 41.592C150.546 42.18 150.66 42.81 150.66 43.482V44.004H143.424C143.544 44.76 143.892 45.39 144.468 45.894C145.044 46.386 145.728 46.632 146.52 46.632C146.964 46.632 147.39 46.56 147.798 46.416C148.206 46.272 148.554 46.074 148.842 45.822L149.994 46.956ZM146.196 40.206C145.512 40.206 144.912 40.434 144.396 40.89C143.892 41.346 143.574 41.934 143.442 42.654H148.878C148.746 41.958 148.428 41.376 147.924 40.908C147.432 40.44 146.856 40.206 146.196 40.206ZM152.375 48V38.838H154.175V39.756C154.535 39.396 154.943 39.126 155.399 38.946C155.867 38.754 156.377 38.658 156.929 38.658C157.973 38.658 158.831 38.994 159.503 39.666C160.175 40.326 160.511 41.184 160.511 42.24V48H158.711V42.546C158.711 41.826 158.501 41.262 158.081 40.854C157.673 40.434 157.127 40.224 156.443 40.224C155.963 40.224 155.525 40.326 155.129 40.53C154.745 40.734 154.427 41.028 154.175 41.412V48H152.375ZM165.431 45.912L166.583 44.58C167.267 45.24 167.963 45.738 168.671 46.074C169.391 46.398 170.141 46.56 170.921 46.56C171.821 46.56 172.553 46.362 173.117 45.966C173.693 45.57 173.981 45.066 173.981 44.454C173.981 43.902 173.783 43.476 173.387 43.176C172.991 42.864 172.337 42.63 171.425 42.474L169.319 42.132C168.167 41.94 167.303 41.574 166.727 41.034C166.163 40.482 165.881 39.756 165.881 38.856C165.881 37.764 166.307 36.888 167.159 36.228C168.011 35.568 169.133 35.238 170.525 35.238C171.425 35.238 172.319 35.388 173.207 35.688C174.095 35.976 174.893 36.396 175.601 36.948L174.557 38.388C173.873 37.872 173.189 37.488 172.505 37.236C171.821 36.972 171.131 36.84 170.435 36.84C169.619 36.84 168.959 37.014 168.455 37.362C167.951 37.71 167.699 38.16 167.699 38.712C167.699 39.228 167.873 39.624 168.221 39.9C168.569 40.164 169.145 40.362 169.949 40.494L171.983 40.818C173.303 41.034 174.275 41.43 174.899 42.006C175.535 42.57 175.853 43.338 175.853 44.31C175.853 44.886 175.733 45.414 175.493 45.894C175.253 46.374 174.911 46.782 174.467 47.118C174.035 47.454 173.507 47.718 172.883 47.91C172.259 48.09 171.575 48.18 170.831 48.18C169.823 48.18 168.851 47.982 167.915 47.586C166.979 47.19 166.151 46.632 165.431 45.912ZM178.288 37.362C177.988 37.362 177.73 37.254 177.514 37.038C177.298 36.81 177.19 36.546 177.19 36.246C177.19 35.946 177.298 35.688 177.514 35.472C177.73 35.244 177.988 35.13 178.288 35.13C178.588 35.13 178.846 35.244 179.062 35.472C179.29 35.688 179.404 35.946 179.404 36.246C179.404 36.546 179.29 36.81 179.062 37.038C178.846 37.254 178.588 37.362 178.288 37.362ZM179.188 38.838V48H177.388V38.838H179.188ZM188.328 48V47.136C187.944 47.46 187.512 47.712 187.032 47.892C186.552 48.06 186.048 48.144 185.52 48.144C184.872 48.144 184.266 48.024 183.702 47.784C183.138 47.532 182.646 47.196 182.226 46.776C181.818 46.356 181.494 45.858 181.254 45.282C181.014 44.694 180.894 44.07 180.894 43.41C180.894 42.75 181.014 42.132 181.254 41.556C181.494 40.98 181.818 40.482 182.226 40.062C182.646 39.642 183.144 39.312 183.72 39.072C184.296 38.82 184.908 38.694 185.556 38.694C186.06 38.694 186.546 38.772 187.014 38.928C187.482 39.084 187.914 39.306 188.31 39.594V35.4L190.11 35.004V48H188.328ZM182.658 43.392C182.658 44.292 182.958 45.048 183.558 45.66C184.158 46.272 184.896 46.578 185.772 46.578C186.288 46.578 186.762 46.482 187.194 46.29C187.638 46.098 188.01 45.828 188.31 45.48V41.322C188.01 40.986 187.638 40.722 187.194 40.53C186.75 40.338 186.276 40.242 185.772 40.242C184.896 40.242 184.158 40.542 183.558 41.142C182.958 41.742 182.658 42.492 182.658 43.392ZM192.242 48V38.838H194.042V40.008C194.318 39.564 194.672 39.228 195.104 39C195.536 38.76 196.022 38.64 196.562 38.64C196.754 38.64 196.922 38.652 197.066 38.676C197.21 38.7 197.348 38.736 197.48 38.784V40.404C197.312 40.344 197.138 40.296 196.958 40.26C196.778 40.224 196.598 40.206 196.418 40.206C195.89 40.206 195.416 40.35 194.996 40.638C194.588 40.914 194.27 41.328 194.042 41.88V48H192.242ZM201.433 48.162C200.437 48.162 199.627 47.904 199.003 47.388C198.379 46.872 198.067 46.2 198.067 45.372C198.067 44.508 198.397 43.83 199.057 43.338C199.717 42.834 200.623 42.582 201.775 42.582C202.219 42.582 202.651 42.63 203.071 42.726C203.491 42.81 203.893 42.93 204.277 43.086V42.114C204.277 41.466 204.085 40.98 203.701 40.656C203.317 40.332 202.765 40.17 202.045 40.17C201.625 40.17 201.187 40.236 200.731 40.368C200.275 40.488 199.765 40.68 199.201 40.944L198.535 39.594C199.219 39.27 199.867 39.036 200.479 38.892C201.091 38.736 201.697 38.658 202.297 38.658C203.485 38.658 204.403 38.946 205.051 39.522C205.711 40.086 206.041 40.89 206.041 41.934V48H204.277V47.208C203.869 47.532 203.431 47.772 202.963 47.928C202.495 48.084 201.985 48.162 201.433 48.162ZM199.795 45.336C199.795 45.78 199.981 46.14 200.353 46.416C200.737 46.692 201.235 46.83 201.847 46.83C202.327 46.83 202.771 46.758 203.179 46.614C203.587 46.47 203.953 46.254 204.277 45.966V44.382C203.929 44.19 203.563 44.052 203.179 43.968C202.795 43.872 202.375 43.824 201.919 43.824C201.271 43.824 200.755 43.962 200.371 44.238C199.987 44.514 199.795 44.88 199.795 45.336ZM208.115 51.726V38.838H209.897V39.72C210.269 39.384 210.695 39.132 211.175 38.964C211.655 38.784 212.165 38.694 212.705 38.694C213.353 38.694 213.959 38.82 214.523 39.072C215.087 39.312 215.573 39.642 215.981 40.062C216.401 40.482 216.731 40.98 216.971 41.556C217.211 42.132 217.331 42.75 217.331 43.41C217.331 44.07 217.211 44.694 216.971 45.282C216.731 45.858 216.401 46.356 215.981 46.776C215.573 47.196 215.081 47.532 214.505 47.784C213.929 48.024 213.317 48.144 212.669 48.144C212.165 48.144 211.673 48.066 211.193 47.91C210.725 47.754 210.299 47.532 209.915 47.244V51.726H208.115ZM212.471 40.26C211.955 40.26 211.475 40.356 211.031 40.548C210.587 40.74 210.215 41.01 209.915 41.358V45.498C210.203 45.834 210.569 46.098 211.013 46.29C211.469 46.482 211.955 46.578 212.471 46.578C213.347 46.578 214.079 46.278 214.667 45.678C215.267 45.078 215.567 44.328 215.567 43.428C215.567 42.528 215.267 41.778 214.667 41.178C214.067 40.566 213.335 40.26 212.471 40.26Z" fill="white"/>
<path fill-rule="evenodd" clip-rule="evenodd" d="M1.53977 0H50.5657C51.4127 0 52.1054 0.692793 52.1054 1.54182V7.9846C52.1054 8.83157 51.4127 9.52436 50.5657 9.52436H1.53977C0.692793 9.52436 0 8.83157 0 7.9846V1.54182C0 0.694849 0.692793 0 1.53977 0V0ZM45.5578 6.37287C44.6677 6.37287 43.9461 5.6513 43.9461 4.76115C43.9461 3.87101 44.6677 3.15149 45.5578 3.15149C46.448 3.15149 47.1675 3.87306 47.1675 4.76115C47.1675 5.6513 46.4459 6.37287 45.5578 6.37287ZM39.3946 6.37287C38.5045 6.37287 37.7829 5.6513 37.7829 4.76115C37.7829 3.87101 38.5045 3.15149 39.3946 3.15149C40.2848 3.15149 41.0064 3.87306 41.0064 4.76115C41.0064 5.6513 40.2848 6.37287 39.3946 6.37287Z" fill="white"/>
<path fill-rule="evenodd" clip-rule="evenodd" d="M33.5998 14.8485H50.566C51.413 14.8485 52.1058 15.5413 52.1058 16.3883V22.831C52.1058 23.678 51.413 24.3708 50.566 24.3708H33.5998V14.8464V14.8485Z" fill="#0A9F82"/>
<path fill-rule="evenodd" clip-rule="evenodd" d="M33.5998 29.6954H50.566C51.413 29.6954 52.1058 30.3882 52.1058 31.2372V37.68C52.1058 38.527 51.413 39.2198 50.566 39.2198H33.5998V29.6954Z" fill="#F2C942"/>
<path fill-rule="evenodd" clip-rule="evenodd" d="M0.0724551 17.4142C0.0131287 17.9124 0.00126339 18.5703 0.00126339 19.4743V39.7055V41.0885C0.00126339 41.0885 -0.160896 42.8966 3.18907 42.8966L28.4779 39.7055C28.4779 39.7055 29 39.4459 29 38.6899V18.98C29 18.98 28.9288 17.9624 27.416 17.8528C25.9032 17.7432 3.73092 15.0618 3.73092 15.0618C1.28667 14.7598 0.295918 15.5677 0.0744326 17.4123L0.0724551 17.4142ZM9.18894 45.1952L12.8355 47.6976C12.8355 47.6976 13.7571 48.1747 14.6865 47.9304C15.616 47.688 22.7549 46.4185 22.7549 46.4185C22.7549 46.4185 23.2374 46.4224 23.4055 45.8145C23.5736 45.2067 22.7134 44.8239 22.5156 44.7432L19.3792 43.1909C18.9659 42.987 18.608 42.9005 18.1037 42.9005C17.5994 42.9005 9.45789 44.1815 9.45789 44.1815C9.45789 44.1815 8.27136 44.4142 9.18894 45.199V45.1952ZM4.61883 19.1319C4.61883 19.1319 4.64652 18.3356 5.87655 18.3356C7.10659 18.3356 26.6349 20.2456 26.6349 20.2456C26.6349 20.2456 27.4041 20.2937 27.4041 20.8169C27.4041 21.3401 27.4041 34.8372 27.4041 34.8372V35.3046C27.4041 35.3046 27.4457 35.924 26.4569 35.924C25.4681 35.924 5.41381 37.3127 5.41381 37.3127C5.41381 37.3127 4.61686 37.4089 4.61686 36.853C4.61686 36.2971 4.61686 19.1338 4.61686 19.1338L4.61883 19.1319Z" fill="white"/>
</svg>
