<svg width="221" height="55" viewBox="0 0 221 55" fill="none" xmlns="http://www.w3.org/2000/svg">
<path d="M81.072 19.336L83.064 16.84C84.04 17.688 84.976 18.312 85.872 18.712C86.784 19.096 87.744 19.288 88.752 19.288C89.792 19.288 90.624 19.096 91.248 18.712C91.872 18.328 92.184 17.816 92.184 17.176C92.184 16.6 91.968 16.152 91.536 15.832C91.12 15.512 90.416 15.272 89.424 15.112L86.088 14.536C84.648 14.296 83.552 13.792 82.8 13.024C82.064 12.256 81.696 11.264 81.696 10.048C81.696 8.48 82.288 7.24 83.472 6.328C84.672 5.416 86.288 4.96 88.32 4.96C89.536 4.96 90.76 5.168 91.992 5.584C93.24 6 94.328 6.576 95.256 7.312L93.384 9.904C92.488 9.216 91.608 8.712 90.744 8.392C89.88 8.056 88.992 7.888 88.08 7.888C87.152 7.888 86.408 8.064 85.848 8.416C85.288 8.752 85.008 9.208 85.008 9.784C85.008 10.296 85.192 10.696 85.56 10.984C85.928 11.272 86.544 11.48 87.408 11.608L90.576 12.136C92.24 12.408 93.488 12.944 94.32 13.744C95.168 14.528 95.592 15.568 95.592 16.864C95.592 18.496 94.944 19.8 93.648 20.776C92.368 21.752 90.656 22.24 88.512 22.24C87.168 22.24 85.84 21.984 84.528 21.472C83.232 20.96 82.08 20.248 81.072 19.336ZM99.0921 8.008C98.5801 8.008 98.1401 7.824 97.7721 7.456C97.4041 7.088 97.2201 6.648 97.2201 6.136C97.2201 5.624 97.4041 5.184 97.7721 4.816C98.1401 4.448 98.5801 4.264 99.0921 4.264C99.6041 4.264 100.044 4.448 100.412 4.816C100.78 5.184 100.964 5.624 100.964 6.136C100.964 6.648 100.78 7.088 100.412 7.456C100.044 7.824 99.6041 8.008 99.0921 8.008ZM100.748 9.496V22H97.4601V9.496H100.748ZM103.319 22V9.496H106.607V10.432C107.055 10.048 107.551 9.76 108.095 9.568C108.639 9.36 109.231 9.256 109.871 9.256C110.671 9.256 111.391 9.424 112.031 9.76C112.687 10.08 113.223 10.536 113.639 11.128C114.135 10.52 114.735 10.056 115.439 9.736C116.143 9.416 116.919 9.256 117.767 9.256C119.159 9.256 120.303 9.72 121.199 10.648C122.095 11.576 122.543 12.768 122.543 14.224V22H119.255V14.704C119.255 13.92 119.039 13.288 118.607 12.808C118.191 12.328 117.623 12.088 116.903 12.088C116.407 12.088 115.951 12.2 115.535 12.424C115.135 12.632 114.791 12.936 114.503 13.336C114.519 13.48 114.535 13.624 114.551 13.768C114.567 13.912 114.575 14.064 114.575 14.224V22H111.287V14.704C111.287 13.92 111.071 13.288 110.639 12.808C110.223 12.328 109.655 12.088 108.935 12.088C108.439 12.088 107.999 12.184 107.615 12.376C107.231 12.568 106.895 12.848 106.607 13.216V22H103.319ZM125.069 27.016V9.496H128.309V10.528C128.805 10.128 129.357 9.832 129.965 9.64C130.573 9.432 131.205 9.328 131.861 9.328C132.741 9.328 133.565 9.496 134.333 9.832C135.117 10.168 135.797 10.624 136.373 11.2C136.949 11.776 137.397 12.456 137.717 13.24C138.053 14.024 138.221 14.864 138.221 15.76C138.221 16.656 138.053 17.496 137.717 18.28C137.381 19.064 136.925 19.744 136.349 20.32C135.773 20.896 135.085 21.352 134.285 21.688C133.501 22.008 132.661 22.168 131.765 22.168C131.157 22.168 130.557 22.088 129.965 21.928C129.389 21.752 128.853 21.504 128.357 21.184V27.016H125.069ZM131.333 12.136C130.741 12.136 130.189 12.24 129.677 12.448C129.165 12.64 128.725 12.928 128.357 13.312V18.232C128.709 18.584 129.141 18.864 129.653 19.072C130.181 19.28 130.741 19.384 131.333 19.384C132.357 19.384 133.221 19.04 133.925 18.352C134.629 17.648 134.981 16.784 134.981 15.76C134.981 14.736 134.621 13.88 133.901 13.192C133.197 12.488 132.341 12.136 131.333 12.136ZM151.535 20.44C150.767 21.064 149.975 21.52 149.159 21.808C148.359 22.096 147.463 22.24 146.471 22.24C145.527 22.24 144.639 22.072 143.807 21.736C142.991 21.4 142.279 20.944 141.671 20.368C141.079 19.792 140.607 19.112 140.255 18.328C139.919 17.528 139.751 16.672 139.751 15.76C139.751 14.864 139.911 14.024 140.231 13.24C140.567 12.44 141.023 11.752 141.599 11.176C142.175 10.584 142.855 10.12 143.639 9.784C144.439 9.448 145.287 9.28 146.183 9.28C147.063 9.28 147.879 9.456 148.631 9.808C149.399 10.144 150.055 10.608 150.599 11.2C151.159 11.792 151.591 12.504 151.895 13.336C152.215 14.152 152.375 15.04 152.375 16V16.864H143.063C143.287 17.648 143.719 18.28 144.359 18.76C144.999 19.24 145.751 19.48 146.615 19.48C147.159 19.48 147.671 19.392 148.151 19.216C148.631 19.04 149.039 18.792 149.375 18.472L151.535 20.44ZM146.111 11.992C145.359 11.992 144.711 12.224 144.167 12.688C143.623 13.136 143.247 13.744 143.039 14.512H149.159C148.951 13.776 148.567 13.176 148.007 12.712C147.463 12.232 146.831 11.992 146.111 11.992ZM160.243 22.072C159.364 22.072 158.532 21.904 157.748 21.568C156.98 21.232 156.308 20.776 155.732 20.2C155.172 19.624 154.724 18.952 154.388 18.184C154.068 17.4 153.908 16.56 153.908 15.664C153.908 14.784 154.076 13.96 154.412 13.192C154.748 12.408 155.204 11.728 155.78 11.152C156.356 10.576 157.036 10.128 157.82 9.808C158.604 9.472 159.444 9.304 160.34 9.304C160.964 9.304 161.556 9.392 162.116 9.568C162.692 9.744 163.228 9.992 163.724 10.312V9.496H166.964V22C166.964 23.648 166.428 24.92 165.356 25.816C164.3 26.712 162.772 27.16 160.772 27.16C159.812 27.16 158.884 27.064 157.988 26.872C157.108 26.68 156.3 26.4 155.564 26.032L156.715 23.464C157.404 23.8 158.076 24.048 158.732 24.208C159.388 24.384 160.044 24.472 160.7 24.472C161.676 24.472 162.412 24.256 162.908 23.824C163.42 23.408 163.676 22.792 163.676 21.976V20.944C163.18 21.312 162.636 21.592 162.044 21.784C161.468 21.976 160.868 22.072 160.243 22.072ZM157.148 15.664C157.148 16.672 157.492 17.528 158.18 18.232C158.884 18.936 159.74 19.288 160.748 19.288C161.34 19.288 161.884 19.192 162.38 19C162.876 18.792 163.308 18.512 163.676 18.16V13.24C163.324 12.888 162.892 12.616 162.38 12.424C161.868 12.216 161.332 12.112 160.772 12.112C159.764 12.112 158.908 12.456 158.204 13.144C157.5 13.832 157.148 14.672 157.148 15.664Z" fill="white"/>
<path d="M82.278 48V35.4H84.168V41.268L90.27 35.4H92.646L86.148 41.484L92.862 48H90.27L84.168 42.006V48H82.278ZM92.5816 43.41C92.5816 42.75 92.7016 42.132 92.9416 41.556C93.1936 40.968 93.5356 40.464 93.9676 40.044C94.3996 39.612 94.9036 39.276 95.4796 39.036C96.0676 38.784 96.6916 38.658 97.3516 38.658C98.0116 38.658 98.6296 38.784 99.2056 39.036C99.7936 39.276 100.298 39.612 100.718 40.044C101.15 40.464 101.486 40.968 101.726 41.556C101.978 42.132 102.104 42.75 102.104 43.41C102.104 44.082 101.978 44.712 101.726 45.3C101.486 45.876 101.15 46.38 100.718 46.812C100.298 47.232 99.7936 47.568 99.2056 47.82C98.6296 48.06 98.0116 48.18 97.3516 48.18C96.6916 48.18 96.0676 48.06 95.4796 47.82C94.9036 47.568 94.3996 47.232 93.9676 46.812C93.5356 46.38 93.1936 45.876 92.9416 45.3C92.7016 44.712 92.5816 44.082 92.5816 43.41ZM97.3516 46.596C98.1796 46.596 98.8816 46.29 99.4576 45.678C100.046 45.054 100.34 44.298 100.34 43.41C100.34 42.522 100.046 41.772 99.4576 41.16C98.8816 40.548 98.1796 40.242 97.3516 40.242C96.5236 40.242 95.8156 40.548 95.2276 41.16C94.6396 41.772 94.3456 42.522 94.3456 43.41C94.3456 44.298 94.6336 45.054 95.2096 45.678C95.7976 46.29 96.5116 46.596 97.3516 46.596ZM104.432 45.732V40.35H102.488V38.838H104.432V36.498L106.214 36.066V38.838H108.914V40.35H106.214V45.318C106.214 45.786 106.316 46.116 106.52 46.308C106.736 46.5 107.084 46.596 107.564 46.596C107.816 46.596 108.038 46.584 108.23 46.56C108.434 46.524 108.65 46.464 108.878 46.38V47.892C108.638 47.976 108.356 48.042 108.032 48.09C107.72 48.138 107.432 48.162 107.168 48.162C106.28 48.162 105.602 47.958 105.134 47.55C104.666 47.13 104.432 46.524 104.432 45.732ZM113.138 48.162C112.142 48.162 111.332 47.904 110.708 47.388C110.084 46.872 109.772 46.2 109.772 45.372C109.772 44.508 110.102 43.83 110.762 43.338C111.422 42.834 112.328 42.582 113.48 42.582C113.924 42.582 114.356 42.63 114.776 42.726C115.196 42.81 115.598 42.93 115.982 43.086V42.114C115.982 41.466 115.79 40.98 115.406 40.656C115.022 40.332 114.47 40.17 113.75 40.17C113.33 40.17 112.892 40.236 112.436 40.368C111.98 40.488 111.47 40.68 110.906 40.944L110.24 39.594C110.924 39.27 111.572 39.036 112.184 38.892C112.796 38.736 113.402 38.658 114.002 38.658C115.19 38.658 116.108 38.946 116.756 39.522C117.416 40.086 117.746 40.89 117.746 41.934V48H115.982V47.208C115.574 47.532 115.136 47.772 114.668 47.928C114.2 48.084 113.69 48.162 113.138 48.162ZM111.5 45.336C111.5 45.78 111.686 46.14 112.058 46.416C112.442 46.692 112.94 46.83 113.552 46.83C114.032 46.83 114.476 46.758 114.884 46.614C115.292 46.47 115.658 46.254 115.982 45.966V44.382C115.634 44.19 115.268 44.052 114.884 43.968C114.5 43.872 114.08 43.824 113.624 43.824C112.976 43.824 112.46 43.962 112.076 44.238C111.692 44.514 111.5 44.88 111.5 45.336ZM130.26 47.1L125.562 37.74V48H123.798V35.4H126.318L130.278 43.446L134.22 35.4H136.74V48H134.958V37.722L130.26 47.1ZM141.808 48.162C140.812 48.162 140.002 47.904 139.378 47.388C138.754 46.872 138.442 46.2 138.442 45.372C138.442 44.508 138.772 43.83 139.432 43.338C140.092 42.834 140.998 42.582 142.15 42.582C142.594 42.582 143.026 42.63 143.446 42.726C143.866 42.81 144.268 42.93 144.652 43.086V42.114C144.652 41.466 144.46 40.98 144.076 40.656C143.692 40.332 143.14 40.17 142.42 40.17C142 40.17 141.562 40.236 141.106 40.368C140.65 40.488 140.14 40.68 139.576 40.944L138.91 39.594C139.594 39.27 140.242 39.036 140.854 38.892C141.466 38.736 142.072 38.658 142.672 38.658C143.86 38.658 144.778 38.946 145.426 39.522C146.086 40.086 146.416 40.89 146.416 41.934V48H144.652V47.208C144.244 47.532 143.806 47.772 143.338 47.928C142.87 48.084 142.36 48.162 141.808 48.162ZM140.17 45.336C140.17 45.78 140.356 46.14 140.728 46.416C141.112 46.692 141.61 46.83 142.222 46.83C142.702 46.83 143.146 46.758 143.554 46.614C143.962 46.47 144.328 46.254 144.652 45.966V44.382C144.304 44.19 143.938 44.052 143.554 43.968C143.17 43.872 142.75 43.824 142.294 43.824C141.646 43.824 141.13 43.962 140.746 44.238C140.362 44.514 140.17 44.88 140.17 45.336ZM148.49 48V35.4L150.29 35.004V42.87L154.736 38.838H156.842L152.126 43.14L157.094 48H154.718L150.29 43.68V48H148.49ZM160.476 48.162C159.48 48.162 158.67 47.904 158.046 47.388C157.422 46.872 157.11 46.2 157.11 45.372C157.11 44.508 157.44 43.83 158.1 43.338C158.76 42.834 159.666 42.582 160.818 42.582C161.262 42.582 161.694 42.63 162.114 42.726C162.534 42.81 162.936 42.93 163.32 43.086V42.114C163.32 41.466 163.128 40.98 162.744 40.656C162.36 40.332 161.808 40.17 161.088 40.17C160.668 40.17 160.23 40.236 159.774 40.368C159.318 40.488 158.808 40.68 158.244 40.944L157.578 39.594C158.262 39.27 158.91 39.036 159.522 38.892C160.134 38.736 160.74 38.658 161.34 38.658C162.528 38.658 163.446 38.946 164.094 39.522C164.754 40.086 165.084 40.89 165.084 41.934V48H163.32V47.208C162.912 47.532 162.474 47.772 162.006 47.928C161.538 48.084 161.028 48.162 160.476 48.162ZM158.838 45.336C158.838 45.78 159.024 46.14 159.396 46.416C159.78 46.692 160.278 46.83 160.89 46.83C161.37 46.83 161.814 46.758 162.222 46.614C162.63 46.47 162.996 46.254 163.32 45.966V44.382C162.972 44.19 162.606 44.052 162.222 43.968C161.838 43.872 161.418 43.824 160.962 43.824C160.314 43.824 159.798 43.962 159.414 44.238C159.03 44.514 158.838 44.88 158.838 45.336ZM166.294 46.812L167.266 45.624C167.746 45.996 168.232 46.284 168.724 46.488C169.228 46.68 169.738 46.776 170.254 46.776C170.902 46.776 171.43 46.65 171.838 46.398C172.246 46.146 172.45 45.816 172.45 45.408C172.45 45.084 172.33 44.826 172.09 44.634C171.85 44.442 171.478 44.31 170.974 44.238L169.318 44.004C168.418 43.872 167.734 43.596 167.266 43.176C166.81 42.744 166.582 42.174 166.582 41.466C166.582 40.638 166.912 39.972 167.572 39.468C168.232 38.952 169.096 38.694 170.164 38.694C170.836 38.694 171.472 38.79 172.072 38.982C172.684 39.174 173.278 39.468 173.854 39.864L172.936 41.052C172.432 40.716 171.94 40.476 171.46 40.332C170.992 40.176 170.518 40.098 170.038 40.098C169.486 40.098 169.042 40.212 168.706 40.44C168.37 40.668 168.202 40.968 168.202 41.34C168.202 41.676 168.316 41.934 168.544 42.114C168.784 42.282 169.174 42.408 169.714 42.492L171.37 42.726C172.27 42.858 172.954 43.14 173.422 43.572C173.902 44.004 174.142 44.574 174.142 45.282C174.142 45.69 174.04 46.074 173.836 46.434C173.644 46.782 173.374 47.082 173.026 47.334C172.69 47.586 172.288 47.79 171.82 47.946C171.352 48.09 170.848 48.162 170.308 48.162C169.516 48.162 168.772 48.048 168.076 47.82C167.392 47.592 166.798 47.256 166.294 46.812ZM174.766 46.812L175.738 45.624C176.218 45.996 176.704 46.284 177.196 46.488C177.7 46.68 178.21 46.776 178.726 46.776C179.374 46.776 179.902 46.65 180.31 46.398C180.718 46.146 180.922 45.816 180.922 45.408C180.922 45.084 180.802 44.826 180.562 44.634C180.322 44.442 179.95 44.31 179.446 44.238L177.79 44.004C176.89 43.872 176.206 43.596 175.738 43.176C175.282 42.744 175.054 42.174 175.054 41.466C175.054 40.638 175.384 39.972 176.044 39.468C176.704 38.952 177.568 38.694 178.636 38.694C179.308 38.694 179.944 38.79 180.544 38.982C181.156 39.174 181.75 39.468 182.326 39.864L181.408 41.052C180.904 40.716 180.412 40.476 179.932 40.332C179.464 40.176 178.99 40.098 178.51 40.098C177.958 40.098 177.514 40.212 177.178 40.44C176.842 40.668 176.674 40.968 176.674 41.34C176.674 41.676 176.788 41.934 177.016 42.114C177.256 42.282 177.646 42.408 178.186 42.492L179.842 42.726C180.742 42.858 181.426 43.14 181.894 43.572C182.374 44.004 182.614 44.574 182.614 45.282C182.614 45.69 182.512 46.074 182.308 46.434C182.116 46.782 181.846 47.082 181.498 47.334C181.162 47.586 180.76 47.79 180.292 47.946C179.824 48.09 179.32 48.162 178.78 48.162C177.988 48.162 177.244 48.048 176.548 47.82C175.864 47.592 175.27 47.256 174.766 46.812ZM186.983 48.162C185.987 48.162 185.177 47.904 184.553 47.388C183.929 46.872 183.617 46.2 183.617 45.372C183.617 44.508 183.947 43.83 184.607 43.338C185.267 42.834 186.173 42.582 187.325 42.582C187.769 42.582 188.201 42.63 188.621 42.726C189.041 42.81 189.443 42.93 189.827 43.086V42.114C189.827 41.466 189.635 40.98 189.251 40.656C188.867 40.332 188.315 40.17 187.595 40.17C187.175 40.17 186.737 40.236 186.281 40.368C185.825 40.488 185.315 40.68 184.751 40.944L184.085 39.594C184.769 39.27 185.417 39.036 186.029 38.892C186.641 38.736 187.247 38.658 187.847 38.658C189.035 38.658 189.953 38.946 190.601 39.522C191.261 40.086 191.591 40.89 191.591 41.934V48H189.827V47.208C189.419 47.532 188.981 47.772 188.513 47.928C188.045 48.084 187.535 48.162 186.983 48.162ZM185.345 45.336C185.345 45.78 185.531 46.14 185.903 46.416C186.287 46.692 186.785 46.83 187.397 46.83C187.877 46.83 188.321 46.758 188.729 46.614C189.137 46.47 189.503 46.254 189.827 45.966V44.382C189.479 44.19 189.113 44.052 188.729 43.968C188.345 43.872 187.925 43.824 187.469 43.824C186.821 43.824 186.305 43.962 185.921 44.238C185.537 44.514 185.345 44.88 185.345 45.336ZM193.666 48V38.838H195.466V40.008C195.742 39.564 196.096 39.228 196.528 39C196.96 38.76 197.446 38.64 197.986 38.64C198.178 38.64 198.346 38.652 198.49 38.676C198.634 38.7 198.772 38.736 198.904 38.784V40.404C198.736 40.344 198.562 40.296 198.382 40.26C198.202 40.224 198.022 40.206 197.842 40.206C197.314 40.206 196.84 40.35 196.42 40.638C196.012 40.914 195.694 41.328 195.466 41.88V48H193.666Z" fill="white"/>
<path fill-rule="evenodd" clip-rule="evenodd" d="M30.6462 24L36.9725 13.3269C39.1669 10.3572 42.0498 10.5888 45.2097 10.5888H54.6824H61.2923L55.5398 21.2142C55.5398 21.2142 53.4738 24 50.8001 24H44.1901H37.2629H30.6529H30.6462ZM50.422 34.5846L44.0956 45.2577C41.9013 48.2274 39.0183 47.9958 35.8585 47.9958H26.3858H19.7759L25.5283 37.3703C25.5283 37.3703 27.5944 34.5846 30.2681 34.5846H36.878H43.8053H50.4153H50.422ZM30.6462 24L24.3198 34.6731C22.1255 37.6428 19.2425 37.4112 16.0826 37.4112H6.60996H0L5.75248 26.7858C5.75248 26.7858 7.81852 24 10.4922 24H17.1022H24.0294H30.6394H30.6462ZM10.8703 13.4154L17.1967 2.74231C19.391 -0.227365 22.274 0.00421559 25.4338 0.00421559H34.9065H41.5165L35.764 10.6297C35.764 10.6297 33.6979 13.4154 31.0243 13.4154H24.4143H17.487H10.8771H10.8703Z" fill="white"/>
</svg>
